/* XPM */
static char *cbt05_yhwmw[] = {
/* columns rows colors chars-per-pixel */
"16 16 133 2 ",
"   c None",
".  c #F23C00",
"X  c #F36800",
"o  c #F46D00",
"O  c #F47200",
"+  c #F47300",
"@  c #F47500",
"#  c #F47600",
"$  c #F47900",
"%  c #F47C00",
"&  c #F57C00",
"*  c #F47E02",
"=  c #F47E07",
"-  c #F47E0E",
";  c #F48018",
":  c #F48019",
">  c #F5811E",
",  c #F5801F",
"<  c #F48123",
"1  c #F48124",
"2  c #F58124",
"3  c #F58226",
"4  c #F58227",
"5  c #F58228",
"6  c #F58229",
"7  c #F5832A",
"8  c #F5842D",
"9  c #F5842E",
"0  c #F58431",
"q  c #F58531",
"w  c #F58532",
"e  c #F48433",
"r  c #F48533",
"t  c #F58533",
"y  c #F68533",
"u  c #F58633",
"i  c #F48534",
"p  c #F58534",
"a  c #F48535",
"s  c #F58535",
"d  c #F68534",
"f  c #F58634",
"g  c #F58635",
"h  c #F68634",
"j  c #F78634",
"k  c #F68635",
"l  c #F78635",
"z  c #F58536",
"x  c #F58636",
"c  c #F58637",
"v  c #F88734",
"b  c #F98734",
"n  c #F98735",
"m  c #F88736",
"M  c #F88737",
"N  c #F98835",
"B  c #FB8835",
"V  c #FC8935",
"C  c #FC8936",
"Z  c #FF8A36",
"A  c #FF8B36",
"S  c #FF8B37",
"D  c #FF8D37",
"F  c #FF8E37",
"G  c #F58638",
"H  c #F58639",
"J  c #F68638",
"K  c #F68639",
"L  c #F5873A",
"P  c #F5873B",
"I  c #F5873C",
"U  c #F5873D",
"Y  c #F6873C",
"T  c #F5883E",
"R  c #F5893F",
"E  c #F6883F",
"W  c #F88839",
"Q  c #FF8E38",
"!  c #FF8E39",
"~  c #FF8C3B",
"^  c #FF9038",
"/  c #FF9138",
"(  c #FF9139",
")  c #FF9239",
"_  c #FF913A",
"`  c #FF923B",
"'  c #FF903E",
"]  c #F58840",
"[  c #F58943",
"{  c #F58B47",
"}  c #F58C48",
"|  c #F58D4D",
" . c #F58F51",
".. c #F59055",
"X. c #F69155",
"o. c #F5945D",
"O. c #F5945E",
"+. c #F69968",
"@. c #F69D71",
"#. c #F6A178",
"$. c #F6A37B",
"%. c #F6A57F",
"&. c #F6A783",
"*. c #F7A884",
"=. c #F7B092",
"-. c #F7B599",
";. c #F8B99F",
":. c #F8C3AE",
">. c #F9C5B1",
",. c #F9CAB8",
"<. c #F9CCBB",
"1. c #F9CDBD",
"2. c #F9D0C0",
"3. c #F9D0C1",
"4. c #FAD2C3",
"5. c #FBDED4",
"6. c #FCE7E0",
"7. c #FBE8E1",
"8. c #FCE9E2",
"9. c #FCEBE5",
"0. c #FCEBE6",
"q. c #FCECE7",
"w. c #FCEEE9",
"e. c #FCF1ED",
"r. c #FDF3EF",
"t. c #FDF3F0",
"y. c #FDF8F6",
"u. c #FDF8F7",
"i. c #FDF9F7",
"p. c #FDFBFA",
"a. c #FEFEFE",
"s. c #FEFFFF",
"d. c white",
/* pixels */
"          t f p k p p           ",
"      r N Q A b v A Q B s       ",
"    p ^ t x E R R ] J t ( d     ",
"  f ) t x 7 # + O @ 5 c y ) i   ",
"  l p G , o.,.3.4.:.| 2 J t n   ",
"h Q t T - &.s.t.q.s.5.% G g D p ",
"g A s P X +.y.... >.p.[ 1 K Z i ",
"g M 9 [ -.2.s.1.=.0.9.* p x n p ",
"f W 3 { 8.t.6.e.d.w.O.< H t n p ",
"g Z d z 4 } *.: <.y.O.= P t Z u ",
"p F p U $ %.a.@.@ u.7.$ G x D d ",
"  C t Y % $.r.#.o ;.i.$.& I j   ",
"  f ( s w P  .L p 5 X.| 8 _ d   ",
"    a / g 0 > q k z ; 6 ` p     ",
"      s V ! ~ m b S ' M e       ",
"          p p i s p h           "
};
