/* XPM */
static char *cbbpi_259gl[] = {
/* columns rows colors chars-per-pixel */
"64 64 247 2 ",
"   c None",
".  c #F36500",
"X  c #F46800",
"o  c #F46C00",
"O  c #F46F00",
"+  c #F47200",
"@  c #F47400",
"#  c #F47500",
"$  c #F47600",
"%  c #F47700",
"&  c #F47800",
"*  c #F47900",
"=  c #F47A00",
"-  c #F47B00",
";  c #F47C00",
":  c #F47D00",
">  c #F57D00",
",  c #F47E00",
"<  c #F57F00",
"1  c #F47D02",
"2  c #F57D03",
"3  c #F47D05",
"4  c #F57F04",
"5  c #F57F05",
"6  c #F47E08",
"7  c #F47E0B",
"8  c #F47F0F",
"9  c #F47F15",
"0  c #F47F1A",
"q  c #F4801D",
"w  c #F48020",
"e  c #F48021",
"r  c #F58121",
"t  c #F48022",
"y  c #F58124",
"u  c #F58224",
"i  c #F58126",
"p  c #F48127",
"a  c #F58127",
"s  c #F58226",
"d  c #F58227",
"f  c #F58228",
"g  c #F4822A",
"h  c #F5822A",
"j  c #F4822B",
"k  c #F5822B",
"l  c #F5832B",
"z  c #F5832C",
"x  c #F5832D",
"c  c #F58430",
"v  c #F58431",
"b  c #F58531",
"n  c #F58432",
"m  c #F58433",
"M  c #F58533",
"N  c #F68533",
"B  c #F48633",
"V  c #F58633",
"C  c #F68633",
"Z  c #F38534",
"A  c #F48534",
"S  c #F58534",
"D  c #F48535",
"F  c #F58535",
"G  c #F68534",
"H  c #F68535",
"J  c #F48634",
"K  c #F58634",
"L  c #F58734",
"P  c #F58635",
"I  c #F58735",
"U  c #F68634",
"Y  c #F78634",
"T  c #F68635",
"R  c #F68735",
"E  c #F78735",
"W  c #F58536",
"Q  c #F58636",
"!  c #F48736",
"~  c #F58736",
"^  c #F58637",
"/  c #F68636",
"(  c #F88635",
")  c #F88735",
"_  c #F98735",
"`  c #FA8735",
"'  c #FA8835",
"]  c #FC8935",
"[  c #FC8936",
"{  c #FD8936",
"}  c #FD8A36",
"|  c #FD8A37",
" . c #FE8A36",
".. c #FF8A36",
"X. c #FF8B36",
"o. c #FF8B37",
"O. c #FF8C36",
"+. c #FF8C37",
"@. c #FF8D37",
"#. c #FF8E37",
"$. c #F58638",
"%. c #F58639",
"&. c #F5863A",
"*. c #F5873A",
"=. c #F5873B",
"-. c #F5873C",
";. c #F5873D",
":. c #F5873E",
">. c #F5893C",
",. c #F5883D",
"<. c #F5883E",
"1. c #F5883F",
"2. c #FF8D38",
"3. c #FF8E38",
"4. c #FF8F38",
"5. c #FF8F39",
"6. c #FF9038",
"7. c #FF9139",
"8. c #F58840",
"9. c #F58841",
"0. c #F58A42",
"q. c #F58B42",
"w. c #F58B44",
"e. c #F58A45",
"r. c #F58A46",
"t. c #F58B47",
"y. c #F58C45",
"u. c #F58B48",
"i. c #F58E4A",
"p. c #F58E4B",
"a. c #F58F4C",
"s. c #F59152",
"d. c #F59153",
"f. c #F59154",
"g. c #F59256",
"h. c #F69357",
"j. c #F6955C",
"k. c #F69964",
"l. c #F69965",
"z. c #F69A66",
"x. c #F69D6D",
"c. c #F69E6E",
"v. c #F69F71",
"b. c #F69F72",
"n. c #F6A174",
"m. c #F6A277",
"M. c #F7A57B",
"N. c #F7AA85",
"B. c #F7AB86",
"V. c #F7AC89",
"C. c #F7B291",
"Z. c #F8B292",
"A. c #F8B393",
"S. c #F8B597",
"D. c #F8B799",
"F. c #F8B79A",
"G. c #F8B79B",
"H. c #F8B89A",
"J. c #F8B89C",
"K. c #F8B99D",
"L. c #F8B99E",
"P. c #F8BA9E",
"I. c #F8BCA2",
"U. c #F8BEA4",
"Y. c #F9C0A7",
"T. c #F9C1A9",
"R. c #F9C1AA",
"E. c #F9C2AA",
"W. c #F9C3AB",
"Q. c #F9C3AD",
"!. c #F9C4AD",
"~. c #F9C4AE",
"^. c #F9C5AF",
"/. c #F9C5B0",
"(. c #F9C6B0",
"). c #F9C6B1",
"_. c #F9C6B2",
"`. c #F9C7B2",
"'. c #F9C8B4",
"]. c #F9C9B5",
"[. c #F9CCB9",
"{. c #FACEBC",
"}. c #FAD0BF",
"|. c #FAD1C0",
" X c #FAD2C1",
".X c #FAD3C2",
"XX c #FAD3C4",
"oX c #FAD4C4",
"OX c #FAD4C5",
"+X c #FAD5C6",
"@X c #FAD5C7",
"#X c #FAD6C8",
"$X c #FAD7C9",
"%X c #FAD8CA",
"&X c #FBDACD",
"*X c #FBDBCE",
"=X c #FBDDD1",
"-X c #FBDED2",
";X c #FBDFD4",
":X c #FBE0D5",
">X c #FBE0D6",
",X c #FBE1D7",
"<X c #FBE2D7",
"1X c #FBE2D9",
"2X c #FBE3D9",
"3X c #FBE5DB",
"4X c #FCE5DC",
"5X c #FCE7DE",
"6X c #FCE8DF",
"7X c #FCE9E1",
"8X c #FCEAE3",
"9X c #FCEBE4",
"0X c #FCEDE6",
"qX c #FCEDE7",
"wX c #FCEEE8",
"eX c #FCEFE9",
"rX c #FCF0EB",
"tX c #FDF0EB",
"yX c #FDF1EC",
"uX c #FDF2ED",
"iX c #FDF2EE",
"pX c #FDF3EE",
"aX c #FDF3EF",
"sX c #FDF5F1",
"dX c #FDF6F3",
"fX c #FDF7F4",
"gX c #FDF8F4",
"hX c #FDF8F5",
"jX c #FDF9F6",
"kX c #FEFAF8",
"lX c #FEFBF9",
"zX c #FDFBFA",
"xX c #FDFBFB",
"cX c #FEFBFA",
"vX c #FDFCFB",
"bX c #FEFCFB",
"nX c #FDFCFC",
"mX c #FDFDFC",
"MX c #FDFDFD",
"NX c #FEFCFC",
"BX c #FEFDFC",
"VX c #FEFDFD",
"CX c #FEFEFD",
"ZX c #FEFEFE",
"AX c #FEFEFF",
"SX c #FEFFFF",
"DX c white",
/* pixels */
"                                                      J D A S K P U S S S U                                                     ",
"                                            S S S ..#.#.+..._ G S Y [ X.@.3.+.S A m                                             ",
"                                        H S 3.O.) U S S S S G K S S U S S U G G  .#. .U F                                       ",
"                                    S 3.+.U S S S S S S S S S S S S S S S S S S S U S  .4.S m                                   ",
"                                R 3.] S S S S S S S S S S S S S S S S S S S S S S S K S S Y #.G                                 ",
"                            K @. .S S S S S S S S S S S S S S S S S S S S S S S S S S S S S S _ 4.S                             ",
"                          P 3.S S S S S S S S S S S S S S S S S S S S S S S S S S S S S S S S S S X.U                           ",
"                        } [ S K S S S S S S S S S S S S S S S S S S S S S S S S S S S S S S S S S U G 4.J                       ",
"                    U 4.G S S S S S S S S S S S S S S S S S S S S S S S S S S S S S S S S S S S S S S S 4.A                     ",
"                  F 4.S M S S S S S S S S S S S S S S S S S S S S S S S S S S S S S S S S S S S S S S K S 3.S                   ",
"                ! 7.S S S S S S S S S S S S S S S S S S S S S S S S S S S S S S S S S S S S S S S S S S S S 4.G                 ",
"                3.S S S S S S S S S S S S S S S S S S S S S S S S S S S S S S S S S S S S S S S S S S S S S S 3.U               ",
"              | S M S S S S S S S S S S S S S S S S S S S S S S S S S S S S S S S S S S S S S S S S S S S S K S 4.              ",
"            P } S S S S S S S S S S S S S S S S S S S S S S S S S S S S S S S S S S S S S S S S S S S S S S S M U )             ",
"          T 3.G S S S S S S S S S S S S S S S S S S S S S S S S S S S S S S S S S S S S S S S S S S S S S S S S S ..K           ",
"          @.S K S S S S S S S S S S S S S S S Q $.$.$.$.$.$.$.$.$.$.$.^ Q F S S S S S S S S S S S S S S S S S S S S 4.P         ",
"        D  .S S S S S S S S S S S S S S S S F x i f p a d d d d d d f k v %.<.,.F M S S S S S S S S S S S S S S S S ) G         ",
"        4.S S S S S S S S S S S S S S S S S n 0.a.p.p.p.p.p.p.p.p.p.i.w.b > % = $.*.m S S S S S S S S S S S S S S S S 4.F       ",
"      P } S S S S S S S S S S S S S S S S -.= [.gXyXuXuXuXuXuXuXuXuXuXtX9X,X}.V.: q =.n S S S S S S S S S S S S S S S ( U       ",
"      2.S K S S S S S S S S S S S S S S S <.% $XDXSXSXSXSXSXSXSXSXSXSXSXSXSXSXSX:Xd.0 =.M S S S S S S S S S S S S S S U #.H     ",
"    R +.S S S S S S S S S S S S S S S S S :.& OXSXxXVXVXBXNXBXNXNXBXBXBXBXNXnXVXSX7XV z $.S S S S S S S S S S S S S S S { T     ",
"    T S S S S S S S S S S S S S S S S S S <.& +XSXNXZXZXSXSXSXSXSXSXSXSXVXVXZXVXxXSX[.$ 1.M S S S S S S S S S S S S S K K X.    ",
"  F 4.S S S S S S S S S S S S S S S S S S <.& +XSXNXZXZXbXkXkXkXkXkXlXbXSXSXVXZXVXSXdXg.t %.S S S S S S S S S S S S S S S 3.F   ",
"  I +.S S S S S S S S S S S S S S S S S S <.& +XSXNXMXSX{.h.b.x.x.c.v.m.J.yXSXBXZXVXSXP.% 1.M S S S S S S S S S S S S S S ..G   ",
"  / _ M S S S S S S S S S S S S S S S S S <.& +XSXNXBXSXQ.o y 1 3 2 : 6 O k.dXSXVXNXSXXX% ;.S S S S S S S S S S S S S S S Y S   ",
"  o.S S S S S S S S S S S S S S S S S S S <.& +XSXNXBXSX).& e.*.=.=.=.-.t.# +XSXNXNXSX;X- %.F S S S S S S S S S S S S S K K +.  ",
"  4.S S S S S S S S S S S S S S S S S S S <.& +XSXNXBXSX/.$ 1.M M M M M ;.& ^.SXVXNXSX1X: $.W S S S S S S S S S S S S S S S #.A ",
"R 3.S S S S S S S S S S S S S S S S S S S :.& +XSXNXBXSX/.$ 1.M S S S S 8.& '.SXBXNXSX-X- &.F S S S S S S S S S S S S S S S @.S ",
"T +.S S S S S S S S S S S S S M =.1.<.<.<.r.- @XSXNXBXSX_.* u.<.<.<.<.8.;.$ >XSXNXNXSX|.% ;.S S S S S S S S S S S S S S S S X.S ",
"A  .S S S S S S S S S S S S S W ; % & & & - X  XSXNXBXSXR.. ; & & & % & + P.ZXZXVXVXSXS.& <.M S S S S S S S S S S S S S S S { S ",
"I _ S S S S S S S S S S S S W f B.P.D.G.F.J.C.2XSXBXVXSX&XC.P.F.F.K.U.(.*XBXSXVXNXSXiXy.h $.S S S S S S S S S S S S S S S S ` P ",
"R U K S S S S S S S S S S S &.; 5XDXSXSXSXSXSXSXCXZXZXVXSXSXSXSXSXSXSXSXSXAXVXBXmXSXU.% 1.M S S S S S S S S S S S S S S S S ) A ",
"P S K S S S S S S S S S S S %.: 2XSXNXVXVXVXVXZXZXZXZXZXVXVXVXVXVXVXVXBXNXBXBXSXSX+X; ^ F S S S S S S S S S S S S S S S S G _ A ",
"P ) S S S S S S S S S S S S %.: 2XSXxXBXBXBXBXBXVXVXBXVXBXBXBXNXVXZXZXZXVXSXSXfX~.8 n ^ M S S S S S S S S S S S S S S S S S ' S ",
"/ { S S S S S S S S S S S S &.; 6XDXSXSXSXSXSXSXSXSXSXSXSXSXSXSXSXVXZXVXSX5XH.j.$ F ^ M S S S S S S S S S S S S S S S S S S  .S ",
"P +.S S S S S S S S S S S S W u A.^.T.E.E.T.T.E.E.E.E.E.W.!.`.#XhXSXBXVXSXuXM.+ t.F M S S S S S S S S S S S S S S S S S S S +.D ",
"/ 3.G S S S S S S S S S S S S W = # $ $ $ $ $ $ % % % % $ $ % @ z.eXSXBXVXSXSXZ.& 1.m S S S S S S S S S S S S S S S S S S U @.B ",
"D 4.S S S S S S S S S S S S S M -.8.1.8.8.8.8.8.9.9.9.9.8.1.1.e.# n.bXSXVXbXSXjXk.7 -.M S S S S S S S S S S S S S S S S S S #.  ",
"  @.K K S S S S S S S S S S S S M M M M M M F r < 5 4 < s F M M e.@ [.SXnXZXvXSX<X, $.F S S S S S S S S S S S S S S S S S S ..  ",
"  P Y S S S S S S S S S S S S S S S S S S =.- !.9X4X4X8XF.= -.M $.g >.rXSXBXZXVXSXK.% 1.M S S S S S S S S S S S S S S S S _ G   ",
"  T X.S S S S S S S S S S S S S S S S S S <.% %XDXSXSXDX'.# 8.M M 8.% L.SXVXZXBXSXeXV x ^ S S S S S S S S S S S S S S S S +.S   ",
"  Q 4.S S S S S S S S S S S S S S S S S S :.& oXSXzXxXSX^.$ 1.M S F $., 3XSXnXZXNXSXE.# 8.M S S S S S S S S S S S S S S S 3.m   ",
"    +.K K S S S S S S S S S S S S S S S S <.& +XSXNXBXSX/.$ 1.M S M <.* N.SXZXCXBXSXyXq.j $.S S S S S S S S S S S S S S S (     ",
"    T { S S S S S S S S S S S S S S S S S <.& +XSXNXBXSX/.$ 1.M S S S -.* =XSXNXZXNXSX`.$ 1.M S S S S S S S S S S S S S X.U     ",
"    Z 3.G S S S S S S S S S S S S S S S S <.& +XSXNXBXSX/.$ 1.M S S M -.; v.cXSXVXVXSXsXs.e %.S S S S S S S S S S S K S +.      ",
"      T ) S S S S S S S S S S S S S S S S :.& oXSXzXxXSX^.$ 1.M S S S S <.& .XSXzXBXzXSX].+ 8.M S S S S S S S S S S S { M       ",
"      P 4.S S S S S S S S S S S S S S S S <.% $XDXSXSXDX'.# 8.M S S S S &.w f.fXSXSXSXSXzXl.9 *.S S S S S S S S S S S 3.        ",
"        F _ M S S S S S S S S S S S S S S -.= ].aX0XqXpXI.* ,.M S S S S M 1.% E.aX0XwX0XaXY.= -.S S S S S S S S S S ..S         ",
"          4.S S S S S S S S S S S S S S S S S K L K K L K S S S S S S S S S W r V I K K V 0.F S S S S S S S S S K S X.          ",
"          P o.G S S S S S S S S S S S S S S S c x x x x v S S S S S S S S S F W x x x x z l S S S S S S S S S S G #.S           ",
"            E U M S S S S S S S S S S S S S S Q $.$.$.$.W S S S S S S S S S S F $.$.$.$.$.Q S S S S S S S S S S { S             ",
"              5.S K S S S S S S S S S S S S S S S S S S S S S S S S S S S S S S S S S S S S S S S S S S S S M S [               ",
"              / 6.S S S S S S S S S S S S S S S S S S S S S S S S S S S S S S S S S S S S S S S S S S S S S S #.                ",
"                I 4.N S S S S S S S S S S S S S S S S S S S S S S S S S S S S S S S S S S S S S S S S S S S 4.C                 ",
"                  P 4.S K S S S S S S S S S S S S S S S S S S S S S S S S S S S S S S S S S S S S S S M S 6.m                   ",
"                    T 4.S M S S S S S S S S S S S S S S S S S S S S S S S S S S S S S S S S S S S S S S @.G                     ",
"                      ~ 4.U U S S S S S S S S S S S S S S S S S S S S S S S S S S S S S S S S S K S { {                         ",
"                          T +.S M S S S S S S S S S S S S S S S S S S S S S S S S S S S S S S S K 3.S                           ",
"                            K 3.) S S S S S S S S S S S S S S S S S S S S S S S S S S S K S S  .X.G                             ",
"                                K 4._ S S S S S S S S S S S S S S S S S S S S S S S S S S } 4.H                                 ",
"                                  P T 3.{ M S S S K S S S S S S S S S S S S K S S S S +.+.U                                     ",
"                                      P U  .3...Y K S S S K S K K S S S U S S _ +.3.S U                                         ",
"                                            P S S +.3.@.+.{ ) G U ' ..+.#.#...G S V                                             ",
"                                                    H P F G A G H S S A S                                                       "
};
