/* XPM */
static char *cbkwj_520r5[] = {
/* columns rows colors chars-per-pixel */
"32 32 180 2 ",
"   c None",
".  c #F36600",
"X  c #F46A00",
"o  c #F46B00",
"O  c #F46C00",
"+  c #F47100",
"@  c #F47300",
"#  c #F47400",
"$  c #F47500",
"%  c #F47600",
"&  c #F47700",
"*  c #F47800",
"=  c #F47900",
"-  c #F47A00",
";  c #F47B00",
":  c #F47C00",
">  c #F57C00",
",  c #F47D00",
"<  c #F47E00",
"1  c #F57E00",
"2  c #F47E04",
"3  c #F47E08",
"4  c #F47F0E",
"5  c #F47F19",
"6  c #F5801F",
"7  c #F58020",
"8  c #F58121",
"9  c #F48122",
"0  c #F58125",
"q  c #F58225",
"w  c #F58226",
"e  c #F58227",
"r  c #F58228",
"t  c #F58229",
"y  c #F5822A",
"u  c #F5832D",
"i  c #F5832F",
"p  c #F5842F",
"a  c #F58431",
"s  c #F58531",
"d  c #F58432",
"f  c #F58433",
"g  c #F58533",
"h  c #F68533",
"j  c #F48434",
"k  c #F48534",
"l  c #F58534",
"z  c #F48535",
"x  c #F58535",
"c  c #F68534",
"v  c #F78534",
"b  c #F48634",
"n  c #F58634",
"m  c #F58635",
"M  c #F68634",
"N  c #F78634",
"B  c #F68635",
"V  c #F78635",
"C  c #F68735",
"Z  c #F58536",
"A  c #F58636",
"S  c #F58637",
"D  c #F88735",
"F  c #F98735",
"G  c #FA8835",
"H  c #FB8835",
"J  c #FC8935",
"K  c #FC8936",
"L  c #FD8936",
"P  c #FE8A36",
"I  c #FF8B36",
"U  c #FF8C37",
"Y  c #FF8D37",
"T  c #FF8E37",
"R  c #F58638",
"E  c #F58738",
"W  c #F58639",
"Q  c #F5863A",
"!  c #F5873A",
"~  c #F5873B",
"^  c #F5873C",
"/  c #F5883C",
"(  c #F5883E",
")  c #F5883F",
"_  c #F5893F",
"`  c #FF8E38",
"'  c #FF8F38",
"]  c #FF9038",
"[  c #F58940",
"{  c #F58941",
"}  c #F58A45",
"|  c #F58B45",
" . c #F58C47",
".. c #F58B48",
"X. c #F58B4A",
"o. c #F58C48",
"O. c #F58D4D",
"+. c #F58E4F",
"@. c #F58F50",
"#. c #F58F51",
"$. c #F59052",
"%. c #F69662",
"&. c #F69966",
"*. c #F69A6A",
"=. c #F69B6B",
"-. c #F69E70",
";. c #F6A279",
":. c #F6A37A",
">. c #F6A57E",
",. c #F7A780",
"<. c #F7A681",
"1. c #F7A781",
"2. c #F7AA87",
"3. c #F7AC8A",
"4. c #F7AD8B",
"5. c #F7AE8D",
"6. c #F7AF8F",
"7. c #F7B090",
"8. c #F7B192",
"9. c #F7B496",
"0. c #F8B497",
"q. c #F8B498",
"w. c #F8B599",
"e. c #F8B69A",
"r. c #F8B79B",
"t. c #F8B79C",
"y. c #F8B99F",
"u. c #F8BBA2",
"i. c #F9C1AB",
"p. c #F9C3AD",
"a. c #F9C8B5",
"s. c #F9CDBB",
"d. c #F9CDBC",
"f. c #F9CEBE",
"g. c #F9CFBE",
"h. c #FACFBE",
"j. c #FAD0C0",
"k. c #FAD1C2",
"l. c #FAD2C3",
"z. c #FAD6C9",
"x. c #FAD7C9",
"c. c #FAD7CA",
"v. c #FAD7CB",
"b. c #FAD9CD",
"n. c #FBDBD0",
"m. c #FBDDD2",
"M. c #FBDED3",
"N. c #FBDED4",
"B. c #FBDFD5",
"V. c #FBE0D6",
"C. c #FBE1D8",
"Z. c #FBE2D9",
"A. c #FBE3DA",
"S. c #FBE3DB",
"D. c #FBE4DB",
"F. c #FBE5DE",
"G. c #FCE9E2",
"H. c #FCEAE4",
"J. c #FCECE6",
"K. c #FCEFEB",
"L. c #FCF0EB",
"P. c #FDF2EE",
"I. c #FDF3EF",
"U. c #FDF3F0",
"Y. c #FDF4F0",
"T. c #FDF4F1",
"R. c #FDF5F2",
"E. c #FDF6F3",
"W. c #FDF7F4",
"Q. c #FDF7F5",
"!. c #FDF9F7",
"~. c #FDF9F8",
"^. c #FDFAF8",
"/. c #FDFAF9",
"(. c #FDFBF9",
"). c #FEFDFC",
"_. c #FEFDFD",
"`. c #FEFEFE",
"'. c #FEFFFF",
"]. c white",
/* pixels */
"                        l z M l M l l g                         ",
"                  l l I T U L N c J I Y U l M                   ",
"              x l ' H g l l l l n n l l l F ` F l               ",
"            x ' N c g n l l l l l l l l l l l l ' c             ",
"          n Y l l l l l l l l l l l l l l l l l l U l           ",
"        m U c l l l l l l l l l l l l l l l l l l l P l         ",
"      c T l l l l l l Z ! ! ! Q ! Q R x g l l l l l l I M       ",
"    Z ' c l l l l l x p 6 7 7 7 7 8 t Q ^ g l l l l l l ] l     ",
"    x N l l l l l x a ( $.#.$.$.$.@._ = : ! g l l l l l l l     ",
"  x ' l l l l l g ( * 8.!.T.Y.U.U.I.K.C.1.: ~ g l l l l l Y b   ",
"  m H n l l l l g ) % e.'.'.'.].].].'.'.^.-., ~ g l l l l D M   ",
"  U M n l l l l g ) & 0.'._.n.d.k.j.G._.'.x.% ( g l l l l l Y   ",
"B ` l l l l l l g ) & q.'.'.;.. - + / L.'.H.8 d A l l l l l T l ",
"B U l l l l l l W } = w.'.'.5.5 O.X.$ V.].J.s i S l l l l l I l ",
"l L l l l l l l : < X 7.'.'.>.O 4 % &.U.'.Z.- Q l l l l l l L n ",
"c N l l l x a A g.N.v.F.`.).S.b.m.B.U.'.'.y.& ) g l l l l l F k ",
"n c n l l S i E Q.].].].'.'.].].'.'.'./.s.3 Z x l l l l l l F l ",
"m J n l l x a A l.Z.M.V.A.A.V.D.(.'.W.,.+ ~ x l l l l l l l L l ",
"C I l l l l l l 2 > 1 * o O ; * t.'.'.D._ a S l l l l l l l U l ",
"n T l l l l l l S ^ 9 *.p.i.%.y @ c.'.'.f.& ( l l l l l l l T v ",
"  Y l n l l l l l { % r.].'.4.: u %.W.'.~.=., ^ g l l l l l U   ",
"  x F g l l l l g ) & 9.'._.2.= ..$ a.'.'.z.# ( g l l l g G f   ",
"  B ` l l l l l g ) % e.'.'.3.= { t [ P.'.`.:.: ^ l l l l ` l   ",
"    V n l l l l g ( = 6.E.Y.<.; ~ ) & u.R.W.h.; ~ l l g D l     ",
"    x ' l l l l l l d ! o.o.W f l l Z q |  .+.A g l l l ]       ",
"      B U l l l l l x a e e a l l l l A r w 0 l l l c Y l       ",
"        c L l l l l l x W W x l l l l x R W R l l l U l         ",
"          l U l l l l l l l l l l l l l l l l l l ` n           ",
"            c ' l l l n l l l l l l l l n M c N ` c             ",
"              x c ` F l l l n n l l l M M H ' l                 ",
"                  b l Y T U K M N P U ` U l n                   ",
"                        l l l n c h j c                         "
};
