/* XPM */
static char *cbkdm_zwxbu[] = {
/* columns rows colors chars-per-pixel */
"128 128 56 1 ",
"  c None",
". c #F46F00",
"X c #F47600",
"o c #F47B00",
"O c #F47D0B",
"+ c #F47E14",
"@ c #F47F1C",
"# c #F58002",
"$ c #F5810B",
"% c #F58317",
"& c #F5831C",
"* c #F58224",
"= c #F5832E",
"- c #F58534",
"; c #F98735",
": c #F58935",
"> c #FD8B36",
", c #F5873B",
"< c #F5893C",
"1 c #FF8E38",
"2 c #FF9039",
"3 c #F58942",
"4 c #F68F49",
"5 c #F6904C",
"6 c #F69251",
"7 c #F6965C",
"8 c #F6985E",
"9 c #F69B64",
"0 c #F79E69",
"q c #F7A06E",
"w c #F7A374",
"e c #F7A57A",
"r c #F7A87D",
"t c #F7AC84",
"y c #F8AF89",
"u c #F8B18D",
"i c #F8B593",
"p c #F9BB9D",
"a c #F9BFA5",
"s c #F9C1A5",
"d c #F9C4AC",
"f c #FACAB3",
"g c #FACEB9",
"h c #FAD1BD",
"j c #FBD5C4",
"k c #FBDACB",
"l c #FBDED1",
"z c #FBE1D5",
"x c #FCE5DB",
"c c #FCE8DE",
"v c #FCEDE5",
"b c #FDEFE9",
"n c #FDF2EC",
"m c #FDF6F2",
"M c #FEF9F6",
"N c #FEFEFE",
/* pixels */
"                                                         >;,-,--;;,-@33;                                                        ",
"                                                   --->>351>;;--@3;;,3;1>>----                                                  ",
"                                               -->>1>---3@@,-----,--@333:-;;>>>;@3                                              ",
"                                           ;-:11>-------@333;----3@-33@@:------->1>,3                                           ",
"                                         --2>;--:-------3,@@----------@3--------@3,,333@                                        ",
"                                      33>>;-----:-------@-3,--------3@33--------,,@3,@,,;,                                      ",
"                                    3;3@----------------------------,,@@--------@3,,@3,,;>>-                                    ",
"                                  -,1;3@----------------------------@33,--------,3@3@,,@--->>-                                  ",
"                                ,@3@3,3,,,,,3@3@--------------------------------,@3@,,,,3@@,,,,,                                ",
"                               -,,,,3@@,@,@3,,,,--------------------------------3@,,@,,,,,3,@3@3>-                              ",
"                             ->>@3@,,3,,,,,@@3@3--------------------------------,,,,3@,@,@@33,,@->-                             ",
"                            :>--,,,,,@@3,,3@,,,,--------------------------------,@,,,,,,,3,3@,,,::;>-                           ",
"                          ->>---,,,,3@,@@,@,,@33--------------------------------,@,@3@3@@,@3,@3@---->-                          ",
"                         -2-----@,@,,,,,,,,,,3,@-----------,--------------------,3,,,,,,3,@,,,,,----->>-                        ",
"                        :>------3,,@,@,,,,@3,@,3-----------,--------------------,@,,@3@3@,3,,@,,------->-                       ",
"                       >;-------@,,,,,,@,@,,3@,@-----------@--------------------,,@3@,,,33@,,,@,-------->:                      ",
"                     ->:--------3@333@@3,,,@3,,,------------------------33@33@33@33,@,@3,@33,,@,--------;>:                     ",
"                    :>----------3@,@,3,3@3,3@,@3------------------------@,3@,3@3@,@,3,@,,,,@,@,,----------;-                    ",
"                   ,1:----------3,@,@@3@,3@3@3@,------------------------@3,3@@3333,,@,3,,@@,,3,,----------:;-                   ",
"                  -2------------@33333,,@@,,,,33------------------------,3@@33,@3@@333@,,,,,,@,@------------>-                  ",
"                 -1:------------33@@----3,3,,@,@--------------------------------@,,,,3,@@3,,,@3@-------------;-                 ",
"                -2--------------@,3,----@,@,,3,3--------------------------------33@3,@,3,,,@,,,,-------------->-                ",
"                >-:-------------@3,3----33,3@,@@--------------------------------,,,@,3,@@,@,,@,,--------------->-               ",
"               >,::-------------,3@@----,@,@3,3,--------------------------------3@3@,@,3,,,,,,@,---------------->:              ",
"              ->----------------------------------------------------------------,,,@,@,@3@,,,,,,----------:-----:>-             ",
"             -1:----------------------------=-----------------------------------@3,3,,,,,,@,,@@,------------------>             ",
"            -2---@--------------------------------------------------------------,3@3,@,,,,,,,,,3------------------>-            ",
"            >,--,,--------:-----------------------------------------------------@@,,,3@,,@,,,@,@------------------->-           ",
"           :;----------------------------------------------------------------@--3,3,,@,@@,,,@,,,-------------------->           ",
"          ->----------------------------------------------------------------,,--@,@,,3,3,,3@,,,@-------------------->:          ",
"          >,----------------------,@--------------------------------------------33,3@,@@@,@,@,@,--------------------->-         ",
"         ->;----------------------,---------------------------------------------,@,@3,3,3,,,,,3,---------------------->         ",
"        ->:-----3,@,@3@3,,,@,,@,@,@,@3,,,,@3,,,,------------------::------------3@3@,,,33@@,------------,,,,,@3,,,,@3,,,        ",
"        ->------@,3,@,,,@3,3,@,,3,,,,,,@,@,,,@@,--::,,--,-::::,-:--,:-----------,,,,@3@@,,33----,@------,@@,,,@,@,,,@,@3        ",
"       :>-----:-3,@,3@33,3@3,,,,,@@,@,@,,3,,@,,,::=====:==-=====-===-@:::3<<<:--@3@33,,,@3-@----,-------,,,3,,,,,@,@3,@,3       ",
"       ,,:------@,3,,,,@@@,,3@,@,,,,,,3,,@,@33@,:::,-,,::,:,<:<:,:,,<,=&#XXXX=<<,,,,3@3@@,--------------,@,@@3@,,,,3@,3,1       ",
"      -2:-------,@333@@,3,,@,,,,,@3,,@@,3@--3+qcvvvvvvvvbvvvvvvvvvvvvvcczkgpe4XX@,@3@3,333@3------------,,@,@,,,,@@,,,@3>;      ",
"      ----------,3,@,,3,@,,,,,3@,,@,,,,,,---,.tMNNNNNNNNNNNNNNNNNNNNNNNNNNNNNnku@+3,33@33@@3------------3@,,33@3,,,,,@,,->      ",
"     -2---------,@,3,@@3,@3@@,@,,,,,,,,,@3--,.eMNNNNNNNNNNNNNNNNNNNNNMNNNNNNNNNNlq.,,@3@3@3,------------3,3@,,,@,,,3,3,,->,     ",
"     ->---------3@,@,3,3,,,,,,,,@3@,@,,@@,--,.tMNNNNNNNNNNNNNNNNNNNNNNNNNNNNNNNNNMi.5@,,,33@------------@,,,3@3@,@,@,@,@-->     ",
"     >----------@3,3,@,@----------------33@33OeNNNNNNNNNNNNNNNNNNNNNNNNNNNNNNNNNNNNyX,-----------,@3@3,,,,@33,@,----------1-    ",
"    ->----------,3,@,33@----------------3@,33.eNNNNNNNNNNNNNNNNNNNNNNNNNNNNNNNNNNNNm9+:---------@3@,,,@3@3,,@,3,---------:;-    ",
"    ->----------,@,3,,@,----------------@@3@,XeNNNNNNNNNNNNNNNNNNNNNNNNNNNNNNNNNNNNNzo,---------3@3,@3,3,,@33,@,----------->    ",
"   ,>-----------,3@@@33,----------------33,,,XeNNNNNNNNNNNNNNNNNNNNNNNNNNNNNNNNNNNNNNuX3--------@33@,3@@@3@,@,3,----------->-   ",
"   :>-----------3,@,3@@3--------------------,oeNNNNNNNNNNNNNNNNNNNNNNNNNNNNNNNNNNNNNNx#---------33@3,,,,3,3,@3@3-----------;-   ",
"   -------------@,3,,33@--------------------,oeNNNNNNNNNNNNNMNNNNNNNNNNNNNNNNNNNNNNNNNro,-------3@333@3@3@@,,,,3------------>   ",
"   >------------3,@,@333@,@3----------------<oeNNNNNNNNNnrwerrreeerrttyifvNNNNNNNNNNNNgX,-------,3@@,,,,,3,,@@3@------------1-  ",
"  :>------------@333@3@,33@,--------------::<XwNNNNNNNNNv#XXXooXoXooooXXX&dNNNNNNNNNNNv*--------@33,@3@3,@@33,,,-----------:>-  ",
"  ,;----------------------------------------,XeNNNNNNNNNv:,,,,,,,:,,:3,,3-.sNNNNNNNNNNM7@:,-----@,@,@3,3--------------@-------  ",
"  >:----------------------------------------<oeNNNNNNNNNv-=,----::-------,<XxNNNNNNNNNNtX,------3,3333@@--------------,,----->  ",
"  2:---------------------------,------------<oeNNNNNNNNNb-@,--------------,XiNNNNNNNNNNiX,------,@3@,@33--------------------:>- ",
" :>:--------------------------@,------------<oeNNNNNNNNNb-,:--------------,@9mNNNNNNNNNdX,------,33@33@3--------------------->- ",
" :>------------------------------------@----<owNNNNNNNNNv--:---------------=3bNNNNNNNNNfX3------,,@33,@@--------------------:;- ",
" -;-----------------------------------,,----:XeNNNNNNNNNv-=-----------------:vNNNNNNNNNdX3------@3,,@,33---------------------:; ",
" ;------------------------------------------,oeNNNNNNNNNb--:---------------::bNNNNNNNNNaX3------,,@3@3------,-----------------> ",
" >-:----------------------------------------<oeNNNNNNNNNb,@:---------------*7nNNNNNNNNNiX,------@3@,,3@-----,@---------------:1 ",
" 2::----------------------------------------,oeNNNNNNNNNv:=---------------,otNNNNNNNNNNe.3@,@,@,3,3,@,@3---------------------->-",
":>,-----------------------------------------<oeNNNNNNNNNv:----------------3XkNNNNNNNNNm6@,,,,,333@@,3,@,---------------------->-",
"->------------------------------3@----------,XwNNNNNNNNNv-=-----------:::3XeMNNNNNNNNNlO3,@3,,,@,3,,@,3,---------------------->-",
":>------------------------------,3,,,,<<,3,,3+eNNNNNNNNNv,:3,,,,,,3,,:==OX0bNNNNNNNNNNaX3@,,,@,3,@@333@,----------------------;:",
":;-----------------------------,@XXXXXXXXXXXoX0NNNNNNNNNvoXoooXXXXooX#=5qfmNNNNNNNNNMm7@3@3,,,@@@,,,,3,@----------------------;;",
",;----------------------------,OilkkkkkkkkkkkklNNNNNNNNNMlkkkkkkkkkllxvnNNNNNNNNNNNMMk.,,,3@3@3,33@3,@,3--------------=-------;;",
";---------------------@------@4.gNNNNNNNNNNNNNNNNNNNNNNNNNNNNNNNNNNNNNNNNNNNNNNNNNNNMq@,3@,,3,3@,,,@,3,@----------------------;:",
"-;--------------------,,------3XfNNNNNNNNNNNNNNNNNNNNNNNNNNNNNNNNNNNNNNNNNNNNNNNNNNNf.3@,,3@@,,,3@3@,@,3----------------------;-",
",3,3,,,,@,@,,@3@,,,33@@,,3@3333.fNNNNNNNNNNNNNNNNNNNNNNNNNNNNNNNNNNNNNNNNNNNNNNNNNNko:------------------3,@,@3@3,,,@,,,,,@@,,3,,",
",@,@,@,@3,,,,,,,@3@@,,3,,@33@@3.fNNNNNNNNNNNNNNNNNNNNNNNNNNNNNNNNNNNNNNNNNNNNNNNNNl*=,------------------@,3,@,,,@3,3@,@,,3,,,@3@",
"@3,,@3,,,,@,,@,,3,,,,@@3@33@3@3.fNNNNNNNNNNNNNNNNNNNNNNNNNNNNNNNNNNNNNNNNNNNNNNNNg*@,-------------------3,@,3@33,3@33,,@,,,,3@,@",
",,,@,,,,,@,,,,@,3@3@,3,3@,3@335.fNNNNNNNNNNNNNNNNNNNNNNNNNNNNNNNNNNNNNNNNNNNNNNxtX,:--------------------@,3,,,,@@@,,@,,,@,@,,,,3",
"@,@3,@,@,,,,,,,,,3,@,@3@3@3,,@3.fNNNNNNNNNNNNNNNNNNNNNNNNNNMMNNNNNNNNNNNNNNNnkt%X,:---------------------,@333@@,3,,,@,,,@,@,,,,@",
"33,,,3,,,@@,,@@,,@,33@,,,,3@,33.gNNNNNNNNNNNNNNNNNNNNNNNNNNNNMNNNNNNNNNNNNvw=oX-,-----------------------,3,@,,3,@,,@,,,@3,33@3,3",
"@3@3,@,,,,,,,,,3,3,@,,3@3@,,,@3.pvxccccccccxvlvbccccvxcxxvvvmmMMNNNNNNNNNNNk<&4:-----------------@------,@,3,@@3,@,,@,@,,@,@,3,@",
"35@,,,@,@3@,,@,@,@,33@,,,,3@3@,3=%%%%%%%%%%$OO+@%%%%%%%%%**@@30izNNNNNNNNNNNn9X,----------------,,------3@,@,3,3,,,,3,,,,3,3@@33",
" 3------,,@,,@,,@3@3,,,@@,,@,,,@::--------@,@33@-------@3,@@,@+.odNNNNNNNNNNNn8o3---------------------@@33,@,@3@--------,@,@333 ",
" 3------,@,,,,,@@,,,@3,3,,,,@,,,----,-,---3,,,3@--:-::,3@,3,33,3,XaNNNNNNNNNNNb6@,--------------------3,,@333@,,--------,3,3,@3 ",
" ;;;----,,,,,,@,3@33,3@3@,@,,@3@------------@33,------,-,,3@,,,,:3XjNNNNNNNNNNNx+-,---------------------@,@33,3@--------@,@@;;; ",
" ;>,----3@,@@33,,,,@@@,,,,3,,,,,------------3@@3--------3@,3@3@3-:*4vNNNNNNNNNNNfX,---------------------33@,@,,,--------3,3,->; ",
" :>-----,,@,,,,,@,@,3@3,@,,,,,,3------------,--3<3<33,333@33@,33,-,XiNNNNNNNNNNNMeo3--------------------3@3,@3@3------------->- ",
" :2-----,,,,@,@,3,,,,,3@,,,@@3@@-------------:*XXXXXXXX.+@,@33@@---,olNNNNNNNNNNNxo:--------------------,3@3@3,,------------;>  ",
"  >-----,@,,,,@,,,@3@,,,@3@,3,,,-------------@7ggggggggga,3@3@3,---,+9MNNNNNNNNNNNa.3@------------------@@333@33------------->  ",
"  -;----,,@3@,,,,@,,,,,@,,,,3@3@------------,OrNNNNNNNNNm3@,33@3----,XgNNNNNNNNNNNm4@3------------------33,@,,,@----------:;,-  ",
"  :>------------3,@,@3@3,,,@3,,,------------,XeNNNNNNNMNv:@,33@3----,@4mNNNNNNNNNNNfX3----------,33@@,,,33@3@--------------->-  ",
"  :1------------@33,@,,,@3,3@,@3------------,XeNNNNNNNNNv:-,@,3@-----,XaNNNNNNNNNNNm7&:---------@@,,33@3@@333--------------;>   ",
"   >;-----------@3333@33,3@3@3@,------------<oeNNNNNNNNNb:@3@3,3-------@xNNNNNNNNNNNgX3---------3,3,,,,@3,,@,@-------------;-   ",
"   :,-----------,3@@,,,@@@,,,,33------------<XwNNNNNNNNNb,@,,3@@------,XyNNNNNNNNNNNN0O,--------@,@,3@3@3@3@,3---------,---;-   ",
"   :1:----------@33,3@@,3,3,,@,@--,---------:oeNNNNNNNNNb-;,,----------,ozNNNNNNNNNNNjX3--------33,,3,@,3,@3----------@,--->-   ",
"    >,----------33@3,,33@,@,,3,3--,@--------,oeNNNNNNNNNv-@,-----------,oeNNNNNNNNNNNM0O:-------,@3@@,3,@3@3-------------;::    ",
"    ->:---------,@3@@3,@33,3@,@@------------<oeNNNNNNNNNv-=:------------,XjNNNNNNNNNNNkX,-------3@,@3,@,@,3,-------------->-    ",
"    ->:---------3@33@33@,@,@3,3,------------,XeNNNNNNNNNv-=:------------:@8mNNNNNNNNNNNeX,------,,,3@,3,33@,-------------->     ",
"     ,:----------------------------------:--:oeNNNNNNNNNv,@,@,@,---------,XfNNNNNNNNNNNlo,------@3@3,3,@-----------------;-     ",
"     :>-------------------------------------,XeNNNNNNNNNv3@,3,33---------,@4nNNNNNNNNNNNeo,-----,,,3,@,3-----------------1-     ",
"      >:------------------------------------,oeNNNNNNNNNv,,,,@,@----------3XaNNNNNNNNNNNzo,-----@@3@,3,@----------------;-      ",
"      ->------------------------------------<XeNNNNNNNNNb@@,,3,3----------,,*vNNNNNNNNNNNyo,----3,,,,@,3----------------1-      ",
"       2------------------------------------<oeNNNNNNNMMb,@33,@@-----------,XiNNNNNNNNNNNxo::---3@,@@@3,-@,------------:-       ",
"       -;-----------------------------------:oeNNNNNNMNMb,@,@,3,------------:XzNNNNNNNNNNNuX3---,,,,3,@,--,------------1:       ",
"        >,----------------------------------<XeNNNNNNNMMb,,,3,@,------------<OeNNNNNNNNNNNv:----,@3,@,3,-------------->-        ",
"        -1----------------------------------:+0zzzllllzxh3@,@,3,-------------:OfxlzzllzzzzxwO,--,,@,3,3@-------------:1-        ",
"         >----------------------@3,,,@,@33,,@3@..O.OXXoo.,,,@3@3---------------XoooXoooXoXO,----,@@3,,,,------------->-         ",
"         ->:--------------------,,@3,3,3,@3@,333,,333,,>,3@3,,,3---------------,<<;-,,,-,,,@----,,,,,@3@------------:>          ",
"          ->:-------------------@3,,@,@@3@,@,@,3@@3@3@;;,@,,@@3@--------------------::--;:------,,,,@,,,------------>-          ",
"           2--------------------,3@33,3,,,,3,3@@3,,,,,3@,,@33,,,---------------------:----------,@,@,,,@----------->-           ",
"           ->-------------------,,@@333@@3@3,,,,@,33@@3@,,@@,,,,--------------------------------,,,,,3,,----------->            ",
"            ,>------------------3@3,@@,3,,,33@3@33@@3333,@3,@,@,--------------------------------@,@,,@,@---------->-            ",
"             >------------------3,3@33@3@@3@,,,,,,33@3@3,,,,3,,@--------------------------------,,@,@,,,--------->-             ",
"             -2-----------------@,,,3@,33,,,@3@33@@,33@,,,@,@,,,--------------------------------@,,,,,3@-------;;:              ",
"              ;2-------------------3,@3@--------,,,@3,,,@,@3@,,,--------------------------------3@,,,,,,,,,@---->               ",
"               -1------------------@,33@--------@3,3@,@33,@,,,,@--------------------------------,,@,,@@,@,,3--->                ",
"                ->------------------@@33--------,3@3@3@,@,3,@3@,--------------------------------,,,,,,,3,3,@--33                ",
"                 ->;----------------3,3@@-------@@,,,,3333@,,,,,--------------------------------,@,,,@,@,@,3;>;                 ",
"                  ->--------------------,-------3,3,,@,@,,,,@3@3--------------------------------@,,,,@,,@,33>@                  ",
"                   ->-------------------,-------@,@,,3,33@3@@,,3----------------------:---------,,,@,,,@,,@33                   ",
"                    ->--------------------------33,3@,@@,,,,3@,@--------------------------------@,@,,,@,@,,3                    ",
"                     ->-------------------------,@,@3,3,@3@3,,,,--------------------------------3,,,@33,,3@                     ",
"                      ->:-------------------------------------------------3,@@3,-----------------------;>                       ",
"                       -2-----------:-------------------------------------@-3,3@---------------------->-                        ",
"                        :>;-:-----------------------------------------------@33@--------------------:>-                         ",
"                          ,>------------------------------------@-----------33@3-------------------;1:                          ",
"                           ->>-------------------,,-------------,,------,,,3,3@3-----------------:>-                            ",
"                             :>------------------@----------------------@3@@@3@,---------------->>:                             ",
"                              ->>---------------------------------------3,,,3@33----:---------;1-                               ",
"                                ;>;---------------------=---------------3@3@,33@------------->--                                ",
"                                  -2>-:---------------------------------,,,,@@3,---------:>>--                                  ",
"                                    :>>:--------------------------------3@3@3,@,-------->>--                                    ",
"                                      :,>;------------------------------,,,,@,3,------>>--                                      ",
"                                        --11>---------------------------@3@33,3@-:;1>:-                                         ",
"                                           -->>>;,----------------------;--;,3,3>>-:-                                           ",
"                                              :-->>>;;-----:---:---:------,>,@3@-                                               ",
"                                                  :--;;>>1>;;;;--;;;1111>;;;3                                                   ",
"                                                        :-;:------;----                                                         "
};
