<svg id="svg" version="1.1" width="400" height="400" viewBox="0 0 400 400" xmlns="http://www.w3.org/2000/svg" xmlns:xlink="http://www.w3.org/1999/xlink" ><g id="svgg"><path id="path0" d="M146.100 3.065 C 145.506 3.304,145.424 4.400,146.000 4.400 C 146.220 4.400,146.400 4.220,146.400 4.000 C 146.400 3.780,146.670 3.600,147.000 3.600 C 147.330 3.600,147.600 3.780,147.600 4.000 C 147.600 4.220,147.780 4.400,148.000 4.400 C 148.646 4.400,148.458 3.308,147.767 3.043 C 147.059 2.771,146.821 2.774,146.100 3.065 M150.100 3.888 C 149.825 3.986,149.600 4.360,149.600 4.719 C 149.600 5.313,149.661 5.311,150.276 4.695 C 150.999 3.972,150.917 3.596,150.100 3.888 M141.600 4.800 C 141.600 5.020,141.763 5.200,141.963 5.200 C 142.162 5.200,142.231 5.560,142.116 6.000 C 141.901 6.822,142.260 6.982,143.367 6.557 C 144.236 6.224,144.162 5.315,143.226 4.814 C 142.248 4.291,141.600 4.285,141.600 4.800 M270.130 8.263 C 270.275 8.408,270.193 8.768,269.948 9.063 C 269.522 9.576,269.689 9.695,270.655 9.566 C 270.796 9.547,271.043 9.746,271.205 10.009 C 271.667 10.755,271.944 9.902,271.566 8.900 C 271.379 8.405,270.920 8.000,270.546 8.000 C 270.172 8.000,269.985 8.118,270.130 8.263 M95.600 25.957 C 95.600 26.374,95.870 26.818,96.200 26.945 C 96.530 27.071,96.800 27.015,96.800 26.820 C 96.800 26.625,96.909 26.181,97.043 25.833 C 97.217 25.379,97.047 25.200,96.443 25.200 C 95.883 25.200,95.600 25.454,95.600 25.957 M315.000 33.200 C 314.864 33.420,315.039 33.600,315.389 33.600 C 315.739 33.600,316.129 33.870,316.255 34.200 C 316.569 35.018,317.065 34.957,317.073 34.100 C 317.083 32.982,315.547 32.315,315.000 33.200 M320.239 35.894 C 319.850 36.283,319.966 36.800,320.442 36.800 C 320.686 36.800,321.239 37.250,321.671 37.800 C 322.767 39.192,323.266 39.049,322.625 37.525 C 322.116 36.313,320.752 35.381,320.239 35.894 M79.600 36.933 C 79.600 37.496,79.838 37.867,80.200 37.867 C 80.530 37.867,80.800 37.627,80.800 37.333 C 80.800 37.040,81.081 36.800,81.424 36.800 C 81.767 36.800,81.936 36.620,81.800 36.400 C 81.272 35.546,79.600 35.951,79.600 36.933 M75.600 39.904 C 75.600 40.427,77.146 41.210,77.393 40.812 C 77.519 40.607,77.269 40.251,76.837 40.020 C 75.906 39.522,75.600 39.493,75.600 39.904 M334.143 48.200 C 334.473 48.530,334.958 48.800,335.220 48.800 C 335.581 48.800,335.576 48.654,335.200 48.200 C 334.926 47.870,334.441 47.600,334.122 47.600 C 333.625 47.600,333.628 47.685,334.143 48.200 M60.954 52.177 C 60.457 53.470,60.920 54.078,61.883 53.400 C 62.395 53.040,62.671 52.530,62.540 52.189 C 62.251 51.434,61.242 51.426,60.954 52.177 M341.092 53.305 C 340.962 53.644,341.084 54.235,341.363 54.617 C 341.808 55.225,341.901 55.235,342.108 54.695 C 342.238 54.356,342.116 53.765,341.837 53.383 C 341.392 52.775,341.299 52.765,341.092 53.305 M344.961 58.090 C 345.016 58.371,345.588 58.649,346.231 58.709 C 347.346 58.813,347.364 58.790,346.624 58.209 C 346.079 57.782,345.765 57.733,345.572 58.045 C 345.371 58.370,345.238 58.368,345.078 58.035 C 344.940 57.748,344.897 57.768,344.961 58.090 M50.223 62.900 C 49.834 64.179,49.696 65.200,49.912 65.200 C 50.507 65.200,51.920 63.456,51.728 62.957 C 51.462 62.264,50.428 62.225,50.223 62.900 M42.621 72.135 C 42.219 72.429,41.990 72.924,42.113 73.235 C 42.285 73.668,42.344 73.645,42.368 73.137 C 42.390 72.677,42.644 72.539,43.200 72.684 C 43.756 72.830,44.000 72.696,44.000 72.247 C 44.000 71.460,43.590 71.427,42.621 72.135 M37.817 78.372 C 37.544 78.814,38.175 79.292,38.544 78.922 C 38.925 78.542,38.854 78.000,38.424 78.000 C 38.217 78.000,37.944 78.168,37.817 78.372 M34.400 82.000 C 34.400 82.220,34.670 82.400,35.000 82.400 C 35.330 82.400,35.600 82.220,35.600 82.000 C 35.600 81.780,35.330 81.600,35.000 81.600 C 34.670 81.600,34.400 81.780,34.400 82.000 M31.600 87.000 C 31.600 87.330,31.780 87.600,32.000 87.600 C 32.220 87.600,32.400 87.330,32.400 87.000 C 32.400 86.670,32.220 86.400,32.000 86.400 C 31.780 86.400,31.600 86.670,31.600 87.000 M376.890 100.070 C 376.572 100.388,376.602 100.659,376.997 101.054 C 377.742 101.799,378.000 101.740,378.000 100.824 C 378.000 99.854,377.467 99.493,376.890 100.070 M21.753 102.243 C 21.362 103.802,22.387 104.240,23.271 102.891 C 23.798 102.089,23.850 101.752,23.484 101.520 C 22.591 100.952,22.017 101.192,21.753 102.243 M20.400 104.963 C 20.400 105.327,20.680 105.452,21.196 105.317 C 21.633 105.203,21.892 104.950,21.772 104.755 C 21.423 104.189,20.400 104.344,20.400 104.963 M12.976 122.987 C 12.317 123.486,12.299 123.576,12.857 123.587 C 13.219 123.594,13.618 123.330,13.745 123.000 C 14.031 122.255,13.947 122.253,12.976 122.987 M7.628 137.500 C 7.610 138.069,7.350 138.400,6.920 138.400 C 6.417 138.400,6.357 138.517,6.689 138.849 C 6.936 139.096,7.028 139.591,6.894 139.949 C 6.680 140.520,6.735 140.531,7.343 140.036 C 7.725 139.726,7.948 139.242,7.841 138.962 C 7.733 138.681,7.791 138.395,7.969 138.326 C 8.147 138.257,8.149 137.840,7.974 137.400 C 7.673 136.642,7.655 136.647,7.628 137.500 M4.432 141.926 C 4.380 142.791,5.186 144.000,5.814 144.000 C 6.136 144.000,6.400 143.835,6.400 143.633 C 6.400 143.431,6.520 142.954,6.666 142.573 C 6.889 141.992,6.764 141.922,5.899 142.139 C 5.237 142.306,4.794 142.219,4.665 141.899 C 4.511 141.518,4.456 141.524,4.432 141.926 M0.006 158.500 C 0.015 159.763,0.610 160.671,0.913 159.882 C 1.037 159.561,0.936 159.096,0.689 158.849 C 0.357 158.517,0.371 158.400,0.744 158.400 C 1.021 158.400,1.136 158.220,1.000 158.000 C 0.562 157.291,-0.000 157.574,0.006 158.500 M392.400 264.000 C 392.400 264.220,392.670 264.400,393.000 264.400 C 393.330 264.400,393.600 264.220,393.600 264.000 C 393.600 263.780,393.330 263.600,393.000 263.600 C 392.670 263.600,392.400 263.780,392.400 264.000 M16.256 287.078 C 15.761 287.572,16.007 288.800,16.600 288.800 C 16.930 288.800,17.200 288.451,17.200 288.024 C 17.200 287.189,16.673 286.661,16.256 287.078 M17.512 290.017 C 17.420 290.644,17.500 291.062,17.690 290.944 C 17.880 290.827,18.342 290.972,18.718 291.266 C 19.323 291.740,19.342 291.726,18.883 291.139 C 18.541 290.701,18.511 290.430,18.793 290.336 C 19.027 290.258,18.873 289.898,18.449 289.535 C 17.718 288.909,17.671 288.933,17.512 290.017 M364.400 318.000 C 364.400 318.220,364.670 318.400,365.000 318.400 C 365.330 318.400,365.600 318.220,365.600 318.000 C 365.600 317.780,365.330 317.600,365.000 317.600 C 364.670 317.600,364.400 317.780,364.400 318.000 M361.200 321.800 C 361.200 322.167,361.394 322.402,361.630 322.323 C 361.867 322.245,362.060 322.009,362.060 321.800 C 362.060 321.591,361.867 321.356,361.630 321.277 C 361.394 321.198,361.200 321.433,361.200 321.800 M356.700 327.157 C 355.886 327.983,356.115 328.400,357.223 328.110 C 357.650 327.998,358.000 327.568,358.000 327.153 C 358.000 326.227,357.616 326.229,356.700 327.157 M354.245 329.828 C 354.065 330.297,354.222 330.423,354.871 330.328 C 355.347 330.257,355.811 329.975,355.902 329.700 C 356.145 328.961,354.530 329.085,354.245 329.828 M351.200 333.655 C 351.200 334.537,352.604 334.688,352.929 333.841 C 353.067 333.480,352.799 333.217,352.172 333.097 C 351.424 332.954,351.200 333.083,351.200 333.655 M347.200 338.127 C 346.475 338.699,345.388 340.722,345.660 340.993 C 345.767 341.100,346.463 340.560,347.207 339.793 C 348.535 338.422,348.530 337.078,347.200 338.127 M54.838 342.376 C 54.150 342.802,54.555 344.000,55.387 344.000 C 55.724 344.000,56.000 344.274,56.000 344.610 C 56.000 344.945,56.425 345.382,56.945 345.579 C 57.465 345.777,58.000 346.223,58.133 346.569 C 58.333 347.091,59.600 347.516,59.600 347.061 C 59.600 346.547,58.267 344.400,57.948 344.400 C 57.732 344.400,57.069 343.867,56.474 343.217 C 55.728 342.399,55.222 342.139,54.838 342.376 M339.300 346.144 C 338.361 346.609,338.094 347.200,338.824 347.200 C 339.057 347.200,339.119 347.425,338.962 347.700 C 338.805 347.975,339.244 347.671,339.938 347.025 C 341.621 345.459,341.373 345.117,339.300 346.144 M333.084 352.000 C 333.199 352.440,333.542 352.800,333.847 352.800 C 334.151 352.800,334.400 352.440,334.400 352.000 C 334.400 351.480,334.133 351.200,333.637 351.200 C 333.072 351.200,332.929 351.407,333.084 352.000 M70.483 357.248 C 70.580 357.540,71.251 357.900,71.974 358.048 C 73.056 358.269,73.192 358.226,72.744 357.801 C 71.898 357.000,70.267 356.601,70.483 357.248 M73.600 360.000 C 73.600 360.541,73.867 360.800,74.424 360.800 C 74.926 360.800,75.140 360.627,74.972 360.355 C 74.821 360.111,74.946 359.753,75.249 359.561 C 75.641 359.313,75.482 359.210,74.700 359.206 C 73.865 359.201,73.600 359.392,73.600 360.000 M324.000 360.200 C 323.584 360.701,323.642 360.800,324.351 360.800 C 324.839 360.800,325.200 360.545,325.200 360.200 C 325.200 359.870,325.042 359.600,324.849 359.600 C 324.656 359.600,324.274 359.870,324.000 360.200 M319.200 362.800 C 319.200 363.020,318.936 363.200,318.613 363.200 C 318.246 363.200,318.115 363.433,318.263 363.821 C 318.625 364.762,320.176 364.371,320.328 363.300 C 320.414 362.695,320.250 362.400,319.828 362.400 C 319.483 362.400,319.200 362.580,319.200 362.800 M79.828 364.355 C 79.707 364.550,79.861 364.918,80.169 365.174 C 80.559 365.498,80.809 365.509,80.992 365.213 C 81.137 364.979,81.423 364.891,81.628 365.017 C 81.832 365.144,82.000 365.076,82.000 364.866 C 82.000 364.157,80.211 363.735,79.828 364.355 M312.302 367.400 C 312.151 368.193,312.274 368.400,312.898 368.400 C 313.452 368.400,313.614 368.212,313.443 367.767 C 313.309 367.419,313.200 366.969,313.200 366.767 C 313.200 365.958,312.481 366.465,312.302 367.400 M299.633 374.546 C 300.440 375.251,301.752 375.673,301.251 375.065 C 300.949 374.699,300.424 374.400,300.084 374.400 C 299.745 374.400,299.542 374.466,299.633 374.546 M109.237 381.577 C 108.931 381.766,108.830 382.125,109.004 382.407 C 109.234 382.778,109.407 382.731,109.692 382.221 C 110.155 381.394,109.966 381.127,109.237 381.577 M289.284 382.215 C 288.852 382.706,288.900 382.800,289.584 382.800 C 290.043 382.800,290.400 382.537,290.400 382.200 C 290.400 381.449,289.955 381.455,289.284 382.215 M112.200 382.800 C 111.760 382.989,111.644 383.156,111.943 383.172 C 112.257 383.188,112.388 383.453,112.255 383.800 C 111.995 384.478,112.614 384.625,113.012 383.981 C 113.341 383.447,114.400 384.262,114.400 385.049 C 114.400 385.352,114.670 385.600,115.000 385.600 C 115.330 385.600,115.600 385.330,115.600 385.000 C 115.600 384.670,115.409 384.400,115.176 384.400 C 114.943 384.400,114.864 384.220,115.000 384.000 C 115.136 383.780,114.961 383.600,114.611 383.600 C 114.261 383.600,113.871 383.330,113.745 383.000 C 113.487 382.329,113.341 382.310,112.200 382.800 M270.600 389.600 C 270.215 390.223,270.759 390.801,271.724 390.794 C 272.439 390.789,272.490 390.715,272.000 390.394 C 271.467 390.044,271.467 389.956,272.000 389.606 C 272.490 389.285,272.439 389.211,271.724 389.206 C 271.242 389.203,270.736 389.380,270.600 389.600 M263.600 393.000 C 263.600 393.330,263.780 393.600,264.000 393.600 C 264.220 393.600,264.400 393.330,264.400 393.000 C 264.400 392.670,264.220 392.400,264.000 392.400 C 263.780 392.400,263.600 392.670,263.600 393.000 M250.100 395.465 C 249.825 395.576,249.600 395.868,249.600 396.113 C 249.600 396.424,249.746 396.414,250.080 396.080 C 250.783 395.377,251.599 395.495,251.606 396.300 C 251.611 396.888,251.672 396.906,251.985 396.411 C 252.552 395.513,251.406 394.938,250.100 395.465 M153.632 396.853 C 153.614 397.213,153.960 397.601,154.400 397.716 C 154.840 397.831,155.200 397.762,155.200 397.563 C 155.200 397.363,154.945 397.200,154.633 397.200 C 154.322 397.200,153.976 396.975,153.865 396.700 C 153.737 396.383,153.652 396.439,153.632 396.853 M247.951 397.161 C 248.254 397.353,248.379 397.711,248.228 397.955 C 248.076 398.200,248.133 398.400,248.353 398.400 C 248.573 398.400,248.876 398.200,249.028 397.955 C 249.303 397.510,248.553 396.812,247.800 396.812 C 247.580 396.812,247.648 396.969,247.951 397.161 " stroke="none" fill="#000000" fill-rule="evenodd"></path><path id="path1" d="M73.600 42.000 C 73.600 42.220,73.330 42.400,73.000 42.400 C 72.631 42.400,72.418 42.746,72.446 43.300 C 72.478 43.910,72.549 43.988,72.668 43.541 C 72.764 43.179,73.193 42.790,73.621 42.678 C 74.417 42.470,74.723 41.600,74.000 41.600 C 73.780 41.600,73.600 41.780,73.600 42.000 M42.446 72.867 C 42.421 73.233,42.175 73.614,41.900 73.712 C 41.625 73.810,41.538 74.038,41.707 74.219 C 42.177 74.722,42.899 73.779,42.684 72.942 C 42.528 72.336,42.484 72.322,42.446 72.867 M146.898 113.262 C 146.508 113.652,146.400 121.960,146.400 151.654 C 146.400 175.050,146.252 189.937,146.014 190.564 L 145.627 191.580 123.999 191.690 C 105.290 191.785,102.319 191.881,101.991 192.400 C 101.772 192.747,101.610 198.766,101.606 206.691 L 101.600 220.382 102.500 220.961 C 103.271 221.458,109.600 221.544,146.800 221.563 C 189.698 221.584,193.996 221.700,198.000 222.945 C 205.644 225.322,209.449 229.762,220.670 249.400 C 223.184 253.800,225.405 257.670,225.606 258.000 C 225.982 258.620,231.477 268.569,233.009 271.405 C 233.486 272.288,234.686 274.448,235.676 276.205 C 236.666 277.962,238.066 280.480,238.788 281.800 C 242.206 288.048,243.014 289.513,243.864 291.000 C 244.367 291.880,245.359 293.739,246.068 295.130 C 246.777 296.522,247.875 298.097,248.509 298.630 L 249.661 299.600 266.657 299.600 C 285.248 299.600,287.036 299.342,284.848 296.980 C 284.654 296.771,282.831 293.360,280.796 289.400 C 276.662 281.355,271.209 270.849,268.340 265.400 C 267.297 263.420,265.540 260.061,264.436 257.935 C 261.816 252.892,260.406 250.293,258.827 247.600 C 258.118 246.390,257.381 245.130,257.190 244.800 C 256.998 244.470,256.067 242.940,255.121 241.400 C 254.174 239.860,253.327 238.420,253.238 238.200 C 251.686 234.356,236.869 218.800,234.760 218.800 C 233.012 218.800,234.640 216.840,236.900 216.223 C 249.337 212.827,259.186 206.263,264.684 197.706 C 279.811 174.162,274.437 134.843,254.230 121.222 C 247.976 117.007,243.777 115.587,232.600 113.909 C 225.672 112.869,147.878 112.282,146.898 113.262 M217.600 144.781 C 225.021 145.087,226.068 145.219,228.626 146.178 C 246.895 153.028,244.774 186.172,225.800 190.349 C 220.301 191.560,179.583 192.223,178.480 191.120 C 177.596 190.236,177.809 145.351,178.700 144.832 C 179.560 144.331,205.834 144.297,217.600 144.781 M395.200 145.000 C 395.200 145.330,395.470 145.600,395.800 145.600 C 396.130 145.600,396.400 145.330,396.400 145.000 C 396.400 144.670,396.130 144.400,395.800 144.400 C 395.470 144.400,395.200 144.670,395.200 145.000 M398.526 240.700 C 398.389 241.085,398.222 241.505,398.156 241.633 C 398.090 241.762,398.297 241.867,398.618 241.867 C 398.961 241.867,399.200 241.484,399.200 240.933 C 399.200 239.829,398.876 239.717,398.526 240.700 M146.880 245.680 C 145.955 246.605,146.214 298.108,147.148 298.953 C 148.161 299.870,176.226 299.775,177.339 298.851 C 178.325 298.032,178.356 246.813,177.371 245.829 C 176.548 245.006,147.695 244.865,146.880 245.680 M3.600 255.000 C 3.600 255.330,3.780 255.600,4.000 255.600 C 4.220 255.600,4.400 255.330,4.400 255.000 C 4.400 254.670,4.220 254.400,4.000 254.400 C 3.780 254.400,3.600 254.670,3.600 255.000 M60.400 348.000 C 60.400 348.220,60.670 348.400,61.000 348.400 C 61.330 348.400,61.600 348.610,61.600 348.867 C 61.600 349.123,61.694 349.239,61.809 349.124 C 61.925 349.009,61.905 348.619,61.767 348.257 C 61.494 347.548,60.400 347.342,60.400 348.000 M246.400 398.000 C 246.400 398.220,246.670 398.400,247.000 398.400 C 247.330 398.400,247.600 398.220,247.600 398.000 C 247.600 397.780,247.330 397.600,247.000 397.600 C 246.670 397.600,246.400 397.780,246.400 398.000 " stroke="none" fill="#fefefe" fill-rule="evenodd"></path><path id="path2" d="M158.166 1.007 C 158.432 2.068,157.596 2.927,156.651 2.564 C 156.216 2.397,156.000 2.528,156.000 2.957 C 156.000 3.726,156.180 3.748,157.326 3.123 C 157.807 2.861,159.010 2.578,160.000 2.494 C 161.653 2.353,163.339 1.600,162.000 1.600 C 161.564 1.600,161.547 1.493,161.920 1.120 C 162.776 0.264,162.439 0.065,160.170 0.086 C 158.060 0.105,157.952 0.154,158.166 1.007 M239.600 0.820 C 239.600 1.249,239.330 1.600,239.000 1.600 C 238.670 1.600,238.400 1.450,238.400 1.267 C 238.400 1.083,238.106 0.933,237.747 0.933 C 236.468 0.933,238.430 1.970,239.757 1.995 C 242.285 2.044,243.639 2.345,245.295 3.229 C 246.238 3.733,246.400 3.699,246.400 3.000 C 246.400 2.620,246.017 2.400,245.357 2.400 C 244.681 2.400,244.386 2.224,244.519 1.900 C 245.270 0.063,245.368 0.148,242.415 0.093 C 239.873 0.046,239.600 0.117,239.600 0.820 M163.879 1.338 C 163.732 1.723,163.946 1.823,164.637 1.691 C 165.166 1.590,165.600 1.348,165.600 1.153 C 165.600 0.587,164.106 0.747,163.879 1.338 M150.972 2.045 C 150.399 2.972,152.615 3.507,154.708 2.946 C 155.427 2.753,155.521 2.587,155.159 2.151 C 154.611 1.490,151.366 1.408,150.972 2.045 M246.972 2.045 C 246.366 3.026,249.174 3.564,251.000 2.816 C 251.743 2.511,251.720 2.457,250.674 2.044 C 249.227 1.474,247.325 1.474,246.972 2.045 M254.584 3.627 C 254.439 3.861,254.420 4.153,254.543 4.276 C 254.872 4.605,256.000 4.091,256.000 3.613 C 256.000 3.070,254.921 3.080,254.584 3.627 M146.400 4.000 C 146.400 4.220,146.670 4.400,147.000 4.400 C 147.330 4.400,147.600 4.220,147.600 4.000 C 147.600 3.780,147.330 3.600,147.000 3.600 C 146.670 3.600,146.400 3.780,146.400 4.000 M150.281 4.639 C 149.886 5.168,149.745 5.600,149.967 5.600 C 150.372 5.600,151.382 4.044,151.132 3.805 C 151.060 3.735,150.677 4.111,150.281 4.639 M259.788 4.911 C 259.370 5.145,258.499 5.444,257.853 5.576 L 256.679 5.817 257.765 6.311 C 258.362 6.583,258.739 6.625,258.602 6.403 C 258.462 6.176,258.757 6.003,259.276 6.006 C 260.019 6.011,260.083 6.088,259.600 6.400 C 259.117 6.712,259.178 6.789,259.917 6.794 C 261.509 6.805,262.641 5.438,261.479 4.909 C 260.823 4.610,260.324 4.611,259.788 4.911 M144.000 6.233 C 143.208 6.673,143.151 6.789,143.729 6.794 C 144.129 6.797,144.727 6.530,145.057 6.200 C 145.786 5.471,145.348 5.485,144.000 6.233 M140.828 6.566 C 140.474 6.992,140.043 7.042,139.082 6.766 C 137.246 6.240,136.400 6.314,136.400 7.000 C 136.400 7.373,136.778 7.600,137.400 7.600 C 137.950 7.600,138.400 7.780,138.400 8.000 C 138.400 8.675,139.436 8.445,140.200 7.600 C 140.598 7.160,141.166 6.800,141.462 6.800 C 141.758 6.800,142.000 6.620,142.000 6.400 C 142.000 5.821,141.373 5.909,140.828 6.566 M264.400 7.000 C 264.400 7.373,264.778 7.600,265.400 7.600 C 266.022 7.600,266.400 7.373,266.400 7.000 C 266.400 6.627,266.022 6.400,265.400 6.400 C 264.778 6.400,264.400 6.627,264.400 7.000 M262.093 7.600 C 262.368 8.040,262.802 8.400,263.059 8.400 C 263.328 8.400,263.437 8.062,263.316 7.600 C 263.200 7.156,262.770 6.800,262.350 6.800 C 261.693 6.800,261.659 6.906,262.093 7.600 M131.870 8.263 C 131.725 8.408,131.807 8.768,132.052 9.063 C 132.393 9.474,132.349 9.600,131.863 9.600 C 131.514 9.600,131.042 9.948,130.814 10.374 C 130.183 11.553,130.320 11.892,131.023 10.889 C 131.365 10.400,131.862 10.000,132.126 10.000 C 132.704 10.000,133.655 8.588,133.310 8.243 C 132.989 7.922,132.200 7.933,131.870 8.263 M268.800 8.400 C 268.400 8.658,268.367 8.790,268.700 8.794 C 268.975 8.797,269.200 9.070,269.200 9.400 C 269.200 9.730,269.470 10.000,269.800 10.000 C 270.130 10.000,270.400 10.145,270.400 10.323 C 270.400 10.999,272.599 11.443,274.107 11.071 C 275.322 10.771,275.526 10.593,275.158 10.150 C 274.596 9.473,272.333 9.427,271.680 10.080 C 271.307 10.453,271.200 10.453,271.200 10.080 C 271.200 9.816,271.065 9.621,270.900 9.647 C 269.896 9.806,269.522 9.576,269.948 9.063 C 270.687 8.173,269.876 7.704,268.800 8.400 M134.900 8.682 C 134.405 8.778,134.000 9.023,134.000 9.228 C 134.000 9.713,134.068 9.704,135.654 9.016 C 136.968 8.445,136.714 8.333,134.900 8.682 M127.600 10.200 C 127.600 10.573,127.978 10.800,128.600 10.800 C 129.222 10.800,129.600 10.573,129.600 10.200 C 129.600 9.827,129.222 9.600,128.600 9.600 C 127.978 9.600,127.600 9.827,127.600 10.200 M123.600 11.614 C 123.600 12.801,122.260 14.115,121.938 13.244 C 121.570 12.249,120.706 12.150,119.983 13.020 C 119.548 13.545,119.607 13.677,120.368 13.876 C 121.043 14.052,121.135 14.195,120.734 14.449 C 120.335 14.702,120.395 14.789,120.969 14.794 C 121.391 14.797,122.021 14.546,122.369 14.236 C 122.716 13.926,123.360 13.611,123.800 13.536 C 124.240 13.461,124.838 13.175,125.129 12.900 C 125.419 12.625,125.914 12.400,126.229 12.400 C 126.543 12.400,126.800 12.220,126.800 12.000 C 126.800 11.780,126.631 11.600,126.424 11.600 C 126.217 11.600,125.936 11.780,125.800 12.000 C 125.410 12.630,124.800 12.466,125.055 11.800 C 125.215 11.384,125.028 11.200,124.443 11.200 C 123.979 11.200,123.600 11.386,123.600 11.614 M276.962 11.845 C 277.141 12.313,277.038 12.423,276.584 12.249 C 276.224 12.111,276.062 12.177,276.203 12.405 C 276.337 12.622,276.786 12.800,277.200 12.800 C 277.614 12.800,278.066 12.983,278.204 13.207 C 278.342 13.430,278.604 13.521,278.786 13.409 C 278.967 13.296,279.221 13.478,279.349 13.812 C 279.517 14.250,279.892 14.347,280.691 14.158 C 283.210 13.564,282.534 12.600,279.600 12.600 C 278.108 12.600,277.820 12.480,277.918 11.900 C 277.990 11.469,277.782 11.200,277.375 11.200 C 276.932 11.200,276.796 11.412,276.962 11.845 M116.900 14.265 C 116.175 14.558,116.286 15.600,117.043 15.600 C 117.435 15.600,117.600 15.822,117.467 16.171 C 117.287 16.640,117.458 16.668,118.424 16.332 C 119.870 15.828,119.933 15.080,118.581 14.464 C 118.021 14.209,117.526 14.014,117.481 14.032 C 117.437 14.049,117.175 14.154,116.900 14.265 M283.100 14.676 C 282.242 14.900,282.208 15.343,283.000 16.000 C 283.415 16.344,283.600 16.359,283.600 16.049 C 283.600 15.802,284.050 15.600,284.600 15.600 C 285.222 15.600,285.600 15.373,285.600 15.000 C 285.600 14.409,284.611 14.281,283.100 14.676 M113.200 16.413 C 113.200 17.108,114.860 17.496,115.853 17.032 L 116.779 16.600 115.890 16.340 C 114.482 15.928,113.200 15.963,113.200 16.413 M287.800 16.400 C 287.664 16.620,287.934 16.800,288.400 16.800 C 288.866 16.800,289.136 16.620,289.000 16.400 C 288.864 16.180,288.594 16.000,288.400 16.000 C 288.206 16.000,287.936 16.180,287.800 16.400 M290.077 17.485 C 288.685 17.751,289.262 18.573,290.931 18.701 C 292.175 18.796,292.400 18.690,292.400 18.007 C 292.400 17.192,292.038 17.111,290.077 17.485 M110.400 18.000 C 110.400 18.220,110.670 18.400,111.000 18.400 C 111.330 18.400,111.600 18.704,111.600 19.076 C 111.600 19.666,111.675 19.654,112.187 18.976 C 113.044 17.844,112.940 17.600,111.600 17.600 C 110.940 17.600,110.400 17.780,110.400 18.000 M294.145 19.800 C 294.403 20.474,293.391 20.651,293.063 19.990 C 292.952 19.765,292.906 19.809,292.961 20.090 C 293.017 20.371,293.499 20.661,294.031 20.736 C 294.564 20.812,295.270 21.089,295.600 21.352 C 296.326 21.932,298.400 22.196,298.400 21.709 C 298.400 21.074,297.453 20.400,296.563 20.400 C 296.080 20.400,295.582 20.130,295.455 19.800 C 295.329 19.470,294.930 19.200,294.570 19.200 C 294.152 19.200,293.998 19.417,294.145 19.800 M104.400 21.013 C 104.400 21.349,104.669 21.728,104.998 21.854 C 105.326 21.981,105.479 22.273,105.336 22.504 C 105.181 22.754,105.269 22.804,105.554 22.628 C 105.831 22.457,105.922 21.984,105.770 21.506 C 105.565 20.861,105.647 20.733,106.141 20.922 C 106.489 21.056,106.881 20.993,107.011 20.783 C 107.144 20.567,106.627 20.400,105.824 20.400 C 104.812 20.400,104.400 20.577,104.400 21.013 M101.878 22.256 C 101.429 22.704,102.001 23.175,102.678 22.915 C 103.115 22.747,103.235 22.819,103.042 23.132 C 102.883 23.389,102.943 23.600,103.176 23.600 C 103.740 23.600,103.713 23.073,103.120 22.480 C 102.580 21.940,102.252 21.881,101.878 22.256 M297.811 22.947 C 298.507 23.429,302.649 24.800,303.411 24.800 C 303.569 24.800,303.474 24.530,303.200 24.200 C 302.926 23.870,302.184 23.600,301.551 23.600 C 300.795 23.600,300.400 23.394,300.400 23.000 C 300.400 22.561,299.946 22.400,298.711 22.400 C 297.165 22.400,297.089 22.446,297.811 22.947 M98.906 24.054 C 98.567 24.393,98.600 24.657,99.036 25.093 C 99.679 25.736,101.600 24.873,101.600 23.942 C 101.600 23.636,101.429 23.644,101.036 23.970 C 100.650 24.291,100.389 24.306,100.212 24.019 C 99.877 23.477,99.472 23.488,98.906 24.054 M304.800 25.576 C 304.800 25.783,304.992 26.072,305.227 26.217 C 305.462 26.362,305.554 26.742,305.432 27.061 C 305.301 27.401,305.382 27.535,305.626 27.384 C 305.855 27.242,306.369 27.503,306.768 27.963 C 307.167 28.423,307.591 28.800,307.709 28.800 C 308.202 28.800,307.433 27.102,306.745 26.673 C 306.335 26.417,306.000 25.981,306.000 25.704 C 306.000 25.427,305.730 25.200,305.400 25.200 C 305.070 25.200,304.800 25.369,304.800 25.576 M94.152 26.981 C 94.029 27.300,94.036 27.735,94.167 27.947 C 94.298 28.158,94.179 28.423,93.902 28.534 C 93.599 28.656,93.678 28.749,94.100 28.768 C 94.485 28.786,94.800 28.549,94.800 28.243 C 94.800 27.593,95.864 27.094,96.536 27.428 C 96.791 27.555,96.651 27.376,96.224 27.030 C 95.254 26.243,94.442 26.224,94.152 26.981 M91.200 28.824 C 91.200 29.277,91.380 29.536,91.600 29.400 C 91.820 29.264,92.000 28.893,92.000 28.576 C 92.000 28.259,91.820 28.000,91.600 28.000 C 91.380 28.000,91.200 28.371,91.200 28.824 M309.230 28.964 C 308.871 29.397,308.874 29.598,309.242 29.826 C 309.577 30.033,309.620 29.952,309.383 29.562 C 309.196 29.253,309.632 29.585,310.352 30.300 C 311.675 31.614,312.400 31.932,312.400 31.200 C 312.400 30.980,312.681 30.800,313.024 30.800 C 313.367 30.800,313.533 30.614,313.392 30.388 C 313.245 30.149,312.563 30.083,311.769 30.232 C 310.494 30.471,310.400 30.417,310.400 29.445 C 310.400 28.288,309.945 28.102,309.230 28.964 M89.600 30.800 C 89.600 31.269,89.907 31.269,91.000 30.800 C 91.709 30.495,91.675 30.453,90.700 30.428 C 90.095 30.413,89.600 30.580,89.600 30.800 M86.400 32.000 C 86.400 32.220,86.670 32.400,87.000 32.400 C 87.330 32.400,87.600 32.704,87.600 33.076 C 87.600 33.666,87.675 33.654,88.187 32.976 C 89.044 31.844,88.940 31.600,87.600 31.600 C 86.940 31.600,86.400 31.780,86.400 32.000 M313.250 32.260 C 313.492 32.552,313.895 32.669,314.145 32.519 C 314.395 32.369,314.353 32.551,314.051 32.923 C 313.379 33.752,314.315 33.925,315.120 33.120 C 316.029 32.211,315.655 31.622,314.205 31.677 C 313.093 31.719,312.899 31.837,313.250 32.260 M85.239 32.953 C 84.885 33.380,84.919 33.560,85.390 33.741 C 85.809 33.902,86.000 33.729,86.000 33.187 C 86.000 32.255,85.855 32.210,85.239 32.953 M317.200 35.157 C 317.200 35.354,317.485 35.624,317.833 35.757 C 318.802 36.129,320.400 36.046,320.400 35.624 C 320.400 34.954,319.581 34.718,318.982 35.215 C 318.572 35.555,318.400 35.565,318.400 35.249 C 318.400 35.002,318.130 34.800,317.800 34.800 C 317.470 34.800,317.200 34.961,317.200 35.157 M78.808 38.191 C 78.068 39.082,78.503 39.578,79.327 38.783 C 79.731 38.393,79.885 37.976,79.673 37.845 C 79.463 37.715,79.073 37.871,78.808 38.191 M325.600 40.000 C 325.600 40.220,325.791 40.400,326.025 40.400 C 326.259 40.400,326.394 40.783,326.325 41.252 C 326.203 42.085,326.647 42.507,328.138 42.973 C 328.544 43.100,328.970 43.563,329.085 44.002 C 329.199 44.441,329.587 44.786,329.947 44.768 C 330.361 44.748,330.417 44.663,330.100 44.535 C 329.825 44.424,329.600 43.890,329.600 43.349 C 329.600 42.634,329.409 42.397,328.900 42.482 C 328.424 42.562,328.157 42.297,328.066 41.654 C 327.992 41.132,327.589 40.618,327.166 40.507 C 326.745 40.397,326.400 40.148,326.400 39.953 C 326.400 39.759,326.220 39.600,326.000 39.600 C 325.780 39.600,325.600 39.780,325.600 40.000 M74.000 41.000 C 73.584 41.501,73.642 41.600,74.351 41.600 C 74.839 41.600,75.200 41.345,75.200 41.000 C 75.200 40.670,75.042 40.400,74.849 40.400 C 74.656 40.400,74.274 40.670,74.000 41.000 M70.800 44.200 C 70.375 44.712,70.486 44.800,71.551 44.800 C 72.238 44.800,72.800 44.609,72.800 44.376 C 72.800 44.143,72.620 44.064,72.400 44.200 C 72.180 44.336,72.000 44.257,72.000 44.024 C 72.000 43.412,71.378 43.503,70.800 44.200 M334.400 47.151 C 334.400 47.344,334.679 47.733,335.019 48.016 C 335.514 48.426,335.534 48.597,335.119 48.865 C 334.737 49.111,334.838 49.265,335.500 49.447 C 335.995 49.582,336.400 49.953,336.400 50.270 C 336.400 50.588,336.568 50.744,336.772 50.617 C 336.977 50.491,337.260 50.573,337.400 50.800 C 337.540 51.027,337.853 51.091,338.096 50.941 C 338.379 50.766,338.445 50.906,338.282 51.332 C 338.124 51.743,338.354 52.299,338.889 52.797 C 339.773 53.620,341.200 53.889,341.200 53.233 C 341.200 52.321,340.651 51.600,339.957 51.600 C 339.541 51.600,339.200 51.324,339.200 50.987 C 339.200 50.651,338.912 50.264,338.560 50.129 C 337.736 49.813,336.187 48.264,335.871 47.440 C 335.615 46.774,334.400 46.536,334.400 47.151 M66.000 47.800 C 66.000 48.142,65.640 48.400,65.163 48.400 C 64.666 48.400,64.241 48.720,64.119 49.187 C 64.006 49.619,63.573 50.082,63.157 50.214 C 62.388 50.458,62.082 52.156,62.734 52.559 C 62.917 52.673,63.659 52.278,64.381 51.683 C 66.820 49.673,67.371 49.057,66.878 48.893 C 66.540 48.780,66.523 48.518,66.817 47.968 C 67.139 47.366,67.096 47.200,66.614 47.200 C 66.276 47.200,66.000 47.470,66.000 47.800 M59.600 53.953 C 59.600 54.148,59.227 54.404,58.770 54.524 C 58.314 54.643,57.843 55.114,57.724 55.570 C 57.604 56.027,57.258 56.400,56.953 56.400 C 56.649 56.400,56.400 56.670,56.400 57.000 C 56.400 57.330,56.164 57.600,55.875 57.600 C 55.243 57.600,53.200 59.658,53.200 60.295 C 53.200 60.543,52.840 60.860,52.400 61.000 C 51.590 61.257,51.263 62.400,52.000 62.400 C 52.220 62.400,52.400 62.220,52.400 62.000 C 52.400 61.780,52.752 61.600,53.182 61.600 C 54.232 61.600,57.092 58.622,56.889 57.740 C 56.828 57.476,56.991 57.129,57.251 56.968 C 57.572 56.770,57.617 56.850,57.390 57.215 C 57.207 57.512,57.788 57.229,58.681 56.587 C 59.819 55.770,60.289 55.148,60.252 54.511 C 60.204 53.671,59.600 53.155,59.600 53.953 M342.000 55.119 C 342.000 55.514,342.532 56.279,343.183 56.819 C 343.834 57.358,344.374 58.040,344.383 58.333 C 344.414 59.318,345.399 58.551,345.529 57.439 C 345.626 56.617,345.459 56.288,344.866 56.133 C 344.431 56.019,343.984 55.583,343.874 55.163 C 343.613 54.164,342.000 54.126,342.000 55.119 M346.077 59.574 C 346.343 60.000,346.732 60.242,346.942 60.112 C 347.152 59.983,347.202 60.073,347.053 60.314 C 346.697 60.891,348.418 62.479,349.111 62.213 C 349.447 62.084,349.623 62.267,349.579 62.703 C 349.452 63.951,349.592 64.452,349.998 64.201 C 350.217 64.066,350.593 64.387,350.834 64.915 C 351.165 65.641,351.507 65.830,352.236 65.691 C 353.326 65.483,353.529 64.501,352.560 64.129 C 351.736 63.813,350.187 62.264,349.871 61.440 C 349.736 61.088,349.349 60.800,349.013 60.800 C 348.676 60.800,348.400 60.459,348.400 60.043 C 348.400 59.249,347.664 58.800,346.364 58.800 C 345.702 58.800,345.661 58.909,346.077 59.574 M51.200 64.200 C 50.149 65.319,49.506 65.510,49.855 64.600 C 50.109 63.939,49.975 63.881,49.033 64.243 C 48.348 64.505,48.200 65.865,48.759 66.747 C 49.135 67.342,49.377 67.140,51.450 64.500 C 52.662 62.957,52.523 62.791,51.200 64.200 M356.000 70.757 C 356.000 71.207,357.040 71.626,357.361 71.306 C 357.842 70.824,357.580 70.400,356.800 70.400 C 356.360 70.400,356.000 70.561,356.000 70.757 M44.301 71.805 C 44.197 72.352,44.245 72.800,44.409 72.800 C 44.838 72.800,45.185 71.238,44.808 71.005 C 44.634 70.897,44.406 71.257,44.301 71.805 M358.266 73.300 C 358.630 75.218,359.075 75.640,360.199 75.128 C 361.156 74.691,361.160 73.600,360.204 73.600 C 359.923 73.600,359.599 73.240,359.484 72.800 C 359.106 71.353,357.985 71.813,358.266 73.300 M40.880 74.080 C 40.227 74.733,40.277 75.200,41.000 75.200 C 41.333 75.200,41.600 74.844,41.600 74.400 C 41.600 73.468,41.526 73.434,40.880 74.080 M361.100 76.676 C 360.252 76.897,360.166 77.600,360.986 77.600 C 361.308 77.600,361.772 77.974,362.017 78.431 C 362.261 78.888,362.703 79.169,362.998 79.056 C 363.292 78.943,363.639 79.124,363.767 79.458 C 364.119 80.374,364.047 80.876,363.605 80.603 C 362.765 80.084,363.688 81.440,364.657 82.149 C 365.665 82.887,365.674 82.886,365.259 82.110 C 364.962 81.556,364.964 81.196,365.266 80.894 C 365.570 80.590,365.449 80.313,364.847 79.937 C 364.381 79.646,364.000 79.091,364.000 78.704 C 364.000 78.267,363.697 78.000,363.200 78.000 C 362.667 78.000,362.400 77.733,362.400 77.200 C 362.400 76.385,362.327 76.355,361.100 76.676 M37.600 79.324 C 37.600 79.696,37.324 80.000,36.987 80.000 C 36.154 80.000,35.891 80.851,36.360 82.026 C 36.734 82.962,36.750 82.949,36.775 81.700 C 36.789 80.985,36.991 80.400,37.224 80.400 C 37.457 80.400,37.512 80.625,37.347 80.900 C 37.159 81.213,37.337 81.180,37.823 80.813 C 38.250 80.490,38.630 80.220,38.667 80.213 C 38.704 80.205,38.479 79.850,38.167 79.423 C 37.674 78.748,37.600 78.735,37.600 79.324 M367.100 84.676 C 365.968 84.972,366.801 86.732,368.100 86.787 C 368.265 86.794,368.400 86.260,368.400 85.600 C 368.400 84.940,368.265 84.421,368.100 84.446 C 367.935 84.472,367.485 84.575,367.100 84.676 M32.877 85.307 C 32.473 85.794,32.518 85.938,33.129 86.097 C 33.602 86.221,34.067 85.983,34.402 85.446 C 34.870 84.694,34.859 84.657,34.303 85.117 C 33.848 85.492,33.636 85.508,33.524 85.173 C 33.420 84.860,33.212 84.903,32.877 85.307 M31.870 88.161 C 31.614 88.830,32.588 88.772,33.284 88.076 C 33.652 87.708,33.570 87.600,32.923 87.600 C 32.462 87.600,31.989 87.852,31.870 88.161 M368.400 88.000 C 368.400 88.220,368.577 88.400,368.792 88.400 C 369.008 88.400,369.298 88.850,369.436 89.400 C 369.574 89.950,369.847 90.400,370.043 90.400 C 370.240 90.400,370.400 90.692,370.400 91.049 C 370.400 91.580,370.509 91.608,371.000 91.200 C 371.745 90.582,371.784 89.600,371.064 89.600 C 370.770 89.600,370.323 89.150,370.073 88.600 C 369.631 87.631,368.400 87.190,368.400 88.000 M28.267 91.067 C 27.760 91.574,28.003 92.000,28.800 92.000 C 29.244 92.000,29.600 91.733,29.600 91.400 C 29.600 90.791,28.754 90.579,28.267 91.067 M371.206 91.876 C 371.203 92.138,371.383 92.466,371.606 92.604 C 371.829 92.741,372.373 93.562,372.814 94.427 C 373.719 96.202,374.173 96.371,374.816 95.170 C 375.192 94.468,375.133 94.307,374.430 94.124 C 373.832 93.967,373.600 93.584,373.600 92.753 C 373.600 91.583,372.727 91.148,372.174 92.043 C 371.983 92.351,371.796 92.321,371.556 91.943 C 371.326 91.580,371.210 91.558,371.206 91.876 M28.546 93.798 C 28.419 94.126,28.171 94.306,27.994 94.196 C 27.334 93.788,26.400 94.518,26.400 95.443 C 26.400 95.969,26.220 96.400,26.000 96.400 C 25.780 96.400,25.600 96.938,25.600 97.596 C 25.600 98.736,25.636 98.761,26.365 98.137 C 26.791 97.772,27.027 97.214,26.897 96.876 C 26.745 96.479,26.826 96.369,27.132 96.558 C 27.548 96.815,27.804 96.091,27.647 95.100 C 27.621 94.935,27.774 94.800,27.986 94.800 C 28.198 94.800,28.565 94.440,28.800 94.000 C 29.035 93.560,29.126 93.200,29.002 93.200 C 28.877 93.200,28.672 93.469,28.546 93.798 M374.900 97.465 C 374.306 97.704,374.224 98.800,374.800 98.800 C 375.020 98.800,375.203 98.575,375.206 98.300 C 375.210 97.957,375.328 97.982,375.580 98.381 C 375.782 98.700,375.858 99.105,375.750 99.281 C 375.642 99.456,375.743 99.600,375.976 99.600 C 376.209 99.600,376.400 99.060,376.400 98.400 C 376.400 97.238,376.031 97.009,374.900 97.465 M23.983 99.020 C 23.547 99.546,23.609 99.677,24.385 99.880 L 25.302 100.120 24.351 100.851 C 23.828 101.253,23.580 101.580,23.800 101.578 C 24.772 101.569,25.516 100.540,25.314 99.485 C 25.078 98.251,24.724 98.128,23.983 99.020 M378.400 103.887 C 378.400 104.143,378.580 104.464,378.800 104.600 C 379.020 104.736,379.200 105.158,379.200 105.538 C 379.200 106.341,380.816 106.621,381.265 105.895 C 381.705 105.183,380.813 104.291,380.183 104.814 C 379.805 105.128,379.507 105.002,379.036 104.330 C 378.686 103.831,378.400 103.631,378.400 103.887 M20.657 105.476 C 20.300 105.834,20.334 107.202,20.700 107.193 C 20.865 107.189,21.388 106.777,21.861 106.277 L 22.722 105.368 21.819 105.293 C 21.322 105.252,20.799 105.334,20.657 105.476 M381.828 108.355 C 381.707 108.550,381.856 108.914,382.158 109.165 C 382.577 109.513,382.758 109.485,382.926 109.049 C 383.268 108.158,382.320 107.559,381.828 108.355 M381.400 110.400 C 382.272 111.363,382.400 111.386,382.400 110.576 C 382.400 110.233,382.220 110.064,382.000 110.200 C 381.780 110.336,381.600 110.257,381.600 110.024 C 381.600 109.791,381.392 109.600,381.138 109.600 C 380.876 109.600,380.989 109.946,381.400 110.400 M17.602 112.300 C 17.605 114.181,17.611 114.189,18.170 113.118 C 18.480 112.522,18.638 111.667,18.520 111.218 C 18.133 109.736,17.600 110.365,17.602 112.300 M383.288 111.748 C 383.425 112.467,383.317 112.800,382.945 112.800 C 382.213 112.800,382.258 113.082,383.143 114.031 C 383.552 114.470,383.838 115.273,383.779 115.815 C 383.711 116.433,383.874 116.800,384.215 116.800 C 384.515 116.800,384.925 117.095,385.127 117.455 C 385.406 117.953,385.559 117.669,385.771 116.256 C 386.069 114.267,385.876 113.600,385.002 113.600 C 384.676 113.600,384.399 113.082,384.325 112.331 C 384.256 111.633,383.950 110.979,383.643 110.879 C 383.232 110.743,383.139 110.971,383.288 111.748 M16.182 112.828 C 15.644 113.699,16.393 116.864,16.995 116.262 C 17.363 115.894,17.468 115.180,17.317 114.059 C 17.098 112.423,16.700 111.991,16.182 112.828 M14.157 116.969 C 14.037 117.282,14.170 117.957,14.454 118.469 C 14.738 118.981,14.918 119.575,14.855 119.789 C 14.792 120.003,15.096 119.856,15.531 119.463 C 16.514 118.573,16.956 117.165,16.155 117.473 C 15.824 117.600,15.600 117.427,15.600 117.043 C 15.600 116.248,14.456 116.190,14.157 116.969 M386.400 118.967 C 386.400 119.278,386.175 119.614,385.900 119.712 C 385.553 119.836,385.675 120.190,386.300 120.871 C 386.795 121.410,387.200 122.022,387.200 122.230 C 387.200 122.892,388.716 123.650,388.913 123.086 C 389.219 122.208,388.763 121.533,388.187 122.011 C 387.492 122.588,387.046 121.212,387.402 119.591 C 387.606 118.662,387.525 118.400,387.032 118.400 C 386.684 118.400,386.400 118.655,386.400 118.967 M14.432 120.656 C 14.414 120.906,14.104 121.086,13.743 121.056 C 12.755 120.972,12.642 121.865,13.608 122.118 C 14.495 122.350,15.038 121.631,14.669 120.713 C 14.542 120.396,14.451 120.374,14.432 120.656 M11.350 124.850 C 11.488 125.538,11.600 126.258,11.600 126.450 C 11.600 127.283,12.358 126.695,12.756 125.554 C 13.267 124.089,13.059 123.600,11.926 123.600 C 11.214 123.600,11.135 123.773,11.350 124.850 M389.600 126.600 C 389.600 127.246,389.376 127.600,388.967 127.600 C 388.084 127.600,388.491 128.574,389.431 128.714 C 390.067 128.808,390.219 128.549,390.310 127.214 C 390.371 126.308,390.240 125.600,390.010 125.600 C 389.784 125.600,389.600 126.050,389.600 126.600 M9.600 128.600 C 9.600 129.638,10.564 130.010,10.898 129.100 C 11.174 128.351,10.807 127.600,10.167 127.600 C 9.829 127.600,9.600 128.004,9.600 128.600 M390.887 129.770 C 390.544 130.521,390.568 130.841,390.991 131.192 C 391.429 131.556,391.495 131.483,391.322 130.823 C 391.200 130.355,391.299 130.000,391.553 130.000 C 391.799 130.000,392.000 129.730,392.000 129.400 C 392.000 128.481,391.380 128.686,390.887 129.770 M8.000 132.133 C 8.000 132.647,8.109 133.176,8.243 133.310 C 8.536 133.602,10.000 132.744,10.000 132.280 C 10.000 132.100,9.839 132.052,9.642 132.174 C 9.445 132.296,9.181 132.126,9.054 131.798 C 8.699 130.871,8.000 131.093,8.000 132.133 M392.400 134.600 C 392.400 135.222,392.627 135.600,393.000 135.600 C 393.373 135.600,393.600 135.222,393.600 134.600 C 393.600 133.978,393.373 133.600,393.000 133.600 C 392.627 133.600,392.400 133.978,392.400 134.600 M8.806 134.900 C 8.811 135.628,8.886 135.685,9.200 135.200 C 9.701 134.424,9.701 134.000,9.200 134.000 C 8.980 134.000,8.803 134.405,8.806 134.900 M6.400 137.400 C 6.400 138.004,6.628 138.400,6.976 138.400 C 7.854 138.400,8.132 139.155,7.534 139.918 C 7.053 140.532,7.070 140.545,7.700 140.051 C 8.457 139.457,8.649 138.400,8.000 138.400 C 7.780 138.400,7.600 137.950,7.600 137.400 C 7.600 136.778,7.373 136.400,7.000 136.400 C 6.627 136.400,6.400 136.778,6.400 137.400 M394.152 138.982 C 393.793 139.917,394.544 140.591,395.142 139.870 C 395.505 139.432,395.476 139.195,395.010 138.808 C 394.520 138.402,394.362 138.434,394.152 138.982 M6.302 143.800 C 6.197 144.350,6.266 144.800,6.455 144.800 C 6.645 144.800,6.800 144.350,6.800 143.800 C 6.800 143.250,6.731 142.800,6.647 142.800 C 6.562 142.800,6.407 143.250,6.302 143.800 M394.400 144.000 C 394.400 144.220,394.850 144.400,395.400 144.400 C 396.022 144.400,396.400 144.627,396.400 145.000 C 396.400 145.720,395.547 145.787,394.880 145.120 C 394.534 144.774,394.400 144.768,394.400 145.096 C 394.400 145.347,394.580 145.664,394.800 145.800 C 395.020 145.936,395.221 146.442,395.246 146.924 C 395.282 147.600,395.334 147.641,395.476 147.100 C 395.576 146.715,395.896 146.400,396.187 146.400 C 396.862 146.400,397.287 145.303,396.982 144.344 C 396.731 143.553,394.400 143.242,394.400 144.000 M3.600 147.400 C 3.600 147.950,3.780 148.400,4.000 148.400 C 4.220 148.400,4.400 147.950,4.400 147.400 C 4.400 146.850,4.220 146.400,4.000 146.400 C 3.780 146.400,3.600 146.850,3.600 147.400 M3.892 150.371 C 3.713 151.053,3.800 151.092,4.645 150.707 C 5.788 150.186,5.895 149.600,4.847 149.600 C 4.432 149.600,4.003 149.947,3.892 150.371 M397.200 151.033 C 397.200 152.841,398.144 152.703,398.325 150.869 C 398.418 149.931,398.287 149.600,397.825 149.600 C 397.375 149.600,397.200 150.000,397.200 151.033 M1.875 151.058 C 1.437 151.496,1.557 154.597,2.029 155.069 C 2.838 155.878,2.305 158.185,1.277 158.331 C 0.564 158.432,0.453 158.582,0.790 158.989 C 1.114 159.378,1.068 159.675,0.614 160.129 C -0.026 160.769,-0.237 162.400,0.320 162.400 C 0.496 162.400,0.856 162.184,1.120 161.920 C 1.493 161.547,1.600 161.609,1.600 162.200 C 1.600 163.852,2.344 162.105,2.451 160.200 C 2.513 159.100,2.842 157.702,3.182 157.092 C 3.579 156.382,3.657 155.880,3.400 155.692 C 3.180 155.532,3.000 154.426,3.000 153.236 C 3.000 151.244,2.554 150.380,1.875 151.058 M399.234 154.959 C 398.979 155.266,398.440 155.431,398.035 155.325 C 397.341 155.144,397.330 155.250,397.839 157.213 C 398.913 161.354,399.954 161.448,399.912 157.400 C 399.877 154.105,399.894 154.164,399.234 154.959 M398.413 162.300 C 398.406 162.795,398.591 163.200,398.824 163.200 C 399.057 163.200,399.144 163.368,399.017 163.572 C 398.891 163.777,398.970 164.058,399.193 164.196 C 399.814 164.579,399.678 163.055,399.013 162.176 C 398.440 161.419,398.425 161.423,398.413 162.300 M0.800 236.727 C 0.800 237.153,1.045 237.706,1.345 237.955 C 1.787 238.321,1.854 238.215,1.697 237.398 C 1.460 236.157,0.800 235.664,0.800 236.727 M398.623 238.489 C 397.549 240.022,397.769 241.006,398.987 240.119 C 399.531 239.723,399.981 238.995,399.987 238.500 C 400.003 237.354,399.421 237.349,398.623 238.489 M1.600 239.800 C 1.600 240.391,1.493 240.453,1.120 240.080 C 0.242 239.202,0.000 239.580,0.000 241.825 C 0.000 243.785,0.090 244.035,0.757 243.925 C 1.173 243.856,1.919 244.160,2.415 244.600 L 3.316 245.400 2.924 244.600 C 2.708 244.160,2.488 242.900,2.435 241.800 C 2.343 239.906,1.600 238.126,1.600 239.800 M397.061 243.287 C 396.754 244.461,397.031 244.663,397.569 243.659 C 397.813 243.203,397.847 242.752,397.647 242.629 C 397.451 242.508,397.188 242.804,397.061 243.287 M397.200 247.000 C 397.200 247.996,397.361 248.413,397.700 248.300 C 397.975 248.208,398.200 247.623,398.200 247.000 C 398.200 246.377,397.975 245.792,397.700 245.700 C 397.361 245.587,397.200 246.004,397.200 247.000 M1.600 248.345 C 1.600 250.304,2.360 251.972,2.852 251.093 C 3.485 249.961,3.120 247.429,2.300 247.274 C 1.759 247.171,1.600 247.415,1.600 248.345 M395.604 252.596 C 395.332 252.923,394.950 253.093,394.755 252.972 C 394.560 252.851,394.400 253.123,394.400 253.576 C 394.400 254.735,396.632 254.758,396.999 253.604 C 397.454 252.169,396.519 251.493,395.604 252.596 M3.200 254.800 C 3.200 255.460,3.363 256.000,3.563 256.000 C 3.762 256.000,3.831 255.640,3.716 255.200 C 3.599 254.753,3.704 254.400,3.953 254.400 C 4.199 254.400,4.400 254.220,4.400 254.000 C 4.400 253.780,4.130 253.600,3.800 253.600 C 3.400 253.600,3.200 254.000,3.200 254.800 M393.872 255.062 C 393.626 255.308,393.863 257.951,394.238 259.145 C 394.372 259.571,394.535 259.586,394.981 259.216 C 395.590 258.710,395.424 257.804,394.530 256.758 C 394.228 256.405,394.094 255.820,394.233 255.458 C 394.493 254.780,394.331 254.602,393.872 255.062 M5.586 257.900 C 5.578 258.285,5.335 259.027,5.046 259.548 C 4.649 260.264,4.628 260.728,4.960 261.445 C 5.502 262.614,6.000 262.677,6.000 261.576 C 6.000 261.123,6.159 260.851,6.354 260.972 C 6.549 261.092,6.615 262.363,6.500 263.795 C 6.326 265.957,6.395 266.400,6.902 266.400 C 7.527 266.400,8.197 264.642,7.810 264.016 C 7.692 263.825,7.795 263.602,8.039 263.520 C 8.325 263.425,8.183 262.838,7.642 261.874 C 7.179 261.050,6.800 259.946,6.800 259.421 C 6.800 257.611,5.622 256.135,5.586 257.900 M391.600 261.200 C 391.600 261.640,391.780 262.000,392.000 262.000 C 392.220 262.000,392.400 262.360,392.400 262.800 C 392.400 263.244,392.667 263.600,393.000 263.600 C 393.631 263.600,393.751 262.805,393.348 261.300 C 393.039 260.148,391.600 260.066,391.600 261.200 M390.900 264.998 C 390.338 265.637,390.237 266.400,390.716 266.400 C 390.889 266.400,391.024 266.877,391.016 267.461 C 391.007 268.044,391.225 268.599,391.500 268.694 C 391.839 268.811,392.000 268.405,392.000 267.433 C 392.000 266.645,391.808 266.000,391.573 266.000 C 391.328 266.000,391.254 265.659,391.400 265.200 C 391.697 264.264,391.586 264.219,390.900 264.998 M8.077 269.630 C 8.156 269.867,8.391 270.060,8.600 270.060 C 8.809 270.060,9.044 269.867,9.123 269.630 C 9.202 269.394,8.967 269.200,8.600 269.200 C 8.233 269.200,7.998 269.394,8.077 269.630 M389.606 269.943 C 389.603 270.260,389.351 270.390,389.000 270.255 C 388.635 270.115,388.400 270.255,388.400 270.613 C 388.400 270.936,388.580 271.200,388.800 271.200 C 389.020 271.200,389.200 271.470,389.200 271.800 C 389.200 272.130,389.470 272.400,389.800 272.400 C 390.481 272.400,390.603 270.933,390.000 270.000 C 389.701 269.537,389.611 269.524,389.606 269.943 M10.000 270.800 C 10.330 271.013,10.431 271.191,10.224 271.194 C 10.016 271.197,10.196 271.475,10.624 271.811 C 11.390 272.414,11.389 272.420,10.600 272.311 C 9.588 272.171,9.232 274.397,10.146 275.155 C 10.773 275.675,10.810 275.613,11.382 273.053 C 11.644 271.882,10.775 270.393,9.838 270.406 C 9.597 270.409,9.670 270.587,10.000 270.800 M387.719 274.063 C 387.079 275.376,386.640 277.644,387.205 276.717 C 387.434 276.341,387.863 276.126,388.159 276.240 C 388.455 276.353,388.802 276.171,388.931 275.836 C 389.195 275.149,388.609 274.623,388.000 275.000 C 387.780 275.136,387.600 275.072,387.600 274.857 C 387.600 274.642,387.807 274.398,388.060 274.313 C 388.313 274.229,388.442 273.927,388.348 273.643 C 388.239 273.317,388.006 273.472,387.719 274.063 M11.900 275.630 C 12.596 276.367,12.530 277.225,11.800 276.945 C 11.433 276.804,11.200 276.945,11.200 277.307 C 11.200 277.679,11.588 277.900,12.243 277.900 C 12.816 277.900,13.131 277.788,12.943 277.650 C 12.754 277.512,12.600 276.965,12.600 276.433 C 12.600 275.902,12.330 275.384,12.000 275.283 C 11.516 275.135,11.496 275.202,11.900 275.630 M12.951 279.016 C 13.081 279.355,12.976 279.970,12.718 280.383 C 12.208 281.199,13.024 282.751,13.628 282.117 C 14.391 281.318,14.000 278.400,13.130 278.400 C 12.902 278.400,12.821 278.677,12.951 279.016 M386.400 279.000 C 386.400 279.330,386.670 279.600,387.000 279.600 C 387.330 279.600,387.600 279.330,387.600 279.000 C 387.600 278.670,387.330 278.400,387.000 278.400 C 386.670 278.400,386.400 278.670,386.400 279.000 M383.950 282.200 C 383.923 282.310,383.878 282.574,383.850 282.787 C 383.822 283.000,383.485 283.542,383.100 283.992 C 382.258 284.975,382.201 285.600,382.953 285.600 C 383.258 285.600,383.600 285.242,383.715 284.805 C 383.829 284.367,384.390 283.832,384.961 283.615 C 386.312 283.101,386.338 282.000,385.000 282.000 C 384.450 282.000,383.978 282.090,383.950 282.200 M14.652 283.300 C 14.249 284.805,14.369 285.600,15.000 285.600 C 15.373 285.600,15.600 285.222,15.600 284.600 C 15.600 284.050,15.802 283.600,16.049 283.600 C 16.359 283.600,16.344 283.415,16.000 283.000 C 15.308 282.166,14.934 282.249,14.652 283.300 M381.500 287.633 C 381.115 288.055,380.980 288.400,381.200 288.400 C 381.420 288.400,381.600 288.670,381.600 289.000 C 381.600 289.330,381.780 289.600,382.000 289.600 C 382.220 289.600,382.400 288.970,382.400 288.200 C 382.400 286.599,382.428 286.617,381.500 287.633 M379.661 291.425 C 379.404 291.989,379.355 292.352,379.551 292.230 C 379.748 292.108,380.023 292.412,380.163 292.904 L 380.417 293.800 380.994 292.800 C 381.312 292.250,381.578 291.485,381.586 291.100 C 381.608 290.018,380.194 290.257,379.661 291.425 M17.475 291.058 C 16.953 291.580,17.202 292.000,18.033 292.000 C 18.499 292.000,18.797 291.790,18.708 291.525 C 18.513 290.940,17.846 290.688,17.475 291.058 M19.733 292.547 C 19.733 292.906,19.883 293.200,20.067 293.200 C 20.250 293.200,20.400 293.464,20.400 293.787 C 20.400 294.145,20.165 294.285,19.800 294.145 C 19.417 293.998,19.200 294.152,19.200 294.570 C 19.200 294.930,19.470 295.329,19.800 295.455 C 20.130 295.582,20.400 296.116,20.400 296.643 C 20.400 297.227,20.634 297.600,21.000 297.600 C 21.330 297.600,21.600 297.311,21.600 296.957 C 21.600 296.518,21.814 296.397,22.277 296.574 C 22.660 296.721,22.486 296.401,21.877 295.836 C 21.284 295.287,20.800 294.504,20.800 294.096 C 20.800 293.687,20.560 293.025,20.267 292.624 C 19.805 291.992,19.733 291.981,19.733 292.547 M378.542 293.851 C 377.922 294.105,378.353 295.600,379.047 295.600 C 379.351 295.600,379.600 295.330,379.600 295.000 C 379.600 294.670,379.409 294.400,379.176 294.400 C 378.943 294.400,378.864 294.220,379.000 294.000 C 379.265 293.571,379.242 293.564,378.542 293.851 M377.165 296.600 C 377.132 296.820,377.127 297.135,377.153 297.300 C 377.179 297.465,377.041 297.600,376.846 297.600 C 376.651 297.600,376.201 298.045,375.845 298.588 C 375.293 299.429,375.287 299.542,375.799 299.345 C 376.129 299.218,376.400 298.844,376.400 298.514 C 376.400 298.151,376.632 298.003,376.987 298.140 C 377.782 298.445,378.136 297.766,377.634 296.903 C 377.409 296.516,377.198 296.380,377.165 296.600 M22.208 298.366 C 21.907 299.734,22.174 300.400,23.024 300.400 C 23.388 300.400,23.600 300.811,23.600 301.520 C 23.600 303.068,24.367 303.789,25.053 302.886 C 25.769 301.944,25.727 301.466,24.955 301.762 C 24.487 301.941,24.377 301.838,24.551 301.384 C 24.689 301.024,24.623 300.862,24.395 301.003 C 24.178 301.137,24.000 300.966,24.000 300.622 C 24.000 300.278,23.657 299.357,23.237 298.574 L 22.474 297.151 22.208 298.366 M375.262 300.621 C 375.338 301.013,375.642 301.414,375.938 301.513 C 376.282 301.628,376.427 301.435,376.338 300.979 C 376.262 300.587,375.958 300.186,375.662 300.087 C 375.318 299.972,375.173 300.165,375.262 300.621 M372.490 304.221 C 371.696 305.442,371.661 305.649,372.217 305.862 C 373.142 306.217,373.677 305.483,373.529 304.063 L 373.400 302.825 372.490 304.221 M26.700 304.930 C 26.871 305.642,26.812 305.709,26.374 305.300 C 25.658 304.630,25.200 304.669,25.200 305.400 C 25.200 305.730,25.470 306.000,25.800 306.000 C 26.130 306.000,26.400 306.338,26.400 306.751 C 26.400 307.699,27.416 308.621,27.792 308.013 C 27.937 307.779,28.223 307.691,28.428 307.817 C 29.040 308.196,28.848 307.338,28.200 306.800 C 27.870 306.526,27.600 305.893,27.600 305.394 C 27.600 304.894,27.350 304.390,27.045 304.273 C 26.644 304.119,26.548 304.301,26.700 304.930 M371.232 306.282 C 371.214 306.547,370.750 307.214,370.200 307.764 C 369.650 308.314,369.200 309.042,369.200 309.382 C 369.200 309.722,368.975 310.003,368.700 310.006 C 368.367 310.010,368.400 310.142,368.800 310.400 C 369.746 311.011,370.400 310.867,370.400 310.047 C 370.400 309.630,370.757 309.200,371.200 309.084 C 372.444 308.759,372.192 307.870,370.924 308.112 L 369.848 308.318 370.777 307.618 C 371.292 307.229,371.607 306.668,371.484 306.358 C 371.346 306.009,371.251 305.980,371.232 306.282 M28.643 309.433 C 28.283 310.370,28.306 310.397,29.500 310.432 C 30.105 310.449,30.375 310.554,30.100 310.665 C 29.489 310.911,29.478 311.227,30.028 312.674 C 30.410 313.678,30.499 313.723,30.853 313.092 C 31.071 312.702,31.421 312.489,31.630 312.619 C 31.839 312.748,31.693 312.224,31.305 311.454 C 30.917 310.684,30.267 309.964,29.860 309.854 C 29.453 309.744,29.238 309.462,29.383 309.227 C 29.528 308.992,29.476 308.800,29.266 308.800 C 29.057 308.800,28.776 309.085,28.643 309.433 M367.498 311.700 C 367.267 312.388,367.616 313.600,368.047 313.600 C 368.241 313.600,368.400 313.060,368.400 312.400 C 368.400 311.203,367.818 310.751,367.498 311.700 M31.892 313.842 C 31.274 314.459,31.604 315.600,32.400 315.600 C 32.844 315.600,33.200 315.867,33.200 316.200 C 33.200 316.530,33.448 316.800,33.751 316.800 C 34.054 316.800,34.575 317.205,34.907 317.700 C 35.240 318.195,35.611 318.506,35.731 318.392 C 35.852 318.277,35.421 317.578,34.775 316.837 C 34.129 316.097,33.600 315.167,33.600 314.769 C 33.600 314.372,33.392 313.919,33.138 313.762 C 32.852 313.585,32.785 313.652,32.962 313.938 C 33.119 314.192,33.072 314.400,32.857 314.400 C 32.642 314.400,32.403 314.209,32.325 313.975 C 32.247 313.741,32.052 313.681,31.892 313.842 M366.353 314.300 C 366.327 314.465,366.327 314.735,366.353 314.900 C 366.379 315.065,366.197 315.155,365.950 315.100 C 365.703 315.045,365.409 315.250,365.298 315.556 C 365.181 315.878,365.274 316.001,365.520 315.849 C 365.754 315.705,366.073 315.794,366.229 316.048 C 366.416 316.350,366.696 316.181,367.043 315.554 C 367.735 314.306,367.726 314.000,367.000 314.000 C 366.670 314.000,366.379 314.135,366.353 314.300 M362.900 318.223 C 362.311 318.863,362.262 319.200,362.757 319.200 C 363.098 319.200,363.737 317.996,363.509 317.783 C 363.449 317.727,363.175 317.925,362.900 318.223 M34.892 319.675 C 35.139 320.417,36.000 320.540,36.000 319.833 C 36.000 319.485,35.715 319.200,35.367 319.200 C 35.018 319.200,34.805 319.414,34.892 319.675 M36.412 320.300 C 36.404 321.194,36.587 321.600,37.000 321.600 C 37.330 321.600,37.600 321.848,37.600 322.151 C 37.600 323.053,38.750 323.810,39.293 323.267 C 39.639 322.921,39.452 322.535,38.539 321.704 C 37.871 321.097,37.123 320.240,36.875 319.800 C 36.468 319.078,36.423 319.127,36.412 320.300 M362.520 319.860 C 361.039 320.578,360.564 321.429,361.645 321.429 C 362.060 321.429,362.400 321.197,362.400 320.914 C 362.400 320.631,362.659 320.400,362.976 320.400 C 363.544 320.400,364.222 319.689,363.931 319.398 C 363.849 319.316,363.215 319.524,362.520 319.860 M358.428 323.947 C 358.208 324.358,358.144 324.810,358.285 324.952 C 358.426 325.093,358.195 325.471,357.771 325.791 C 357.018 326.361,357.020 326.375,357.851 326.387 C 358.968 326.404,359.545 325.659,359.465 324.300 C 359.389 323.022,358.995 322.887,358.428 323.947 M41.100 326.313 C 40.161 326.508,40.206 327.624,41.163 327.874 C 41.583 327.984,42.016 328.417,42.126 328.837 C 42.255 329.332,42.678 329.600,43.329 329.600 C 43.881 329.600,44.414 329.825,44.512 330.100 C 44.610 330.375,44.817 330.483,44.971 330.341 C 45.126 330.198,44.721 329.538,44.072 328.874 C 43.423 328.210,42.646 327.329,42.346 326.917 C 42.046 326.505,41.485 326.234,41.100 326.313 M355.044 328.629 C 354.876 329.068,355.004 329.219,355.468 329.129 C 355.834 329.058,356.209 328.775,356.300 328.500 C 356.545 327.765,355.328 327.890,355.044 328.629 M349.491 334.756 C 348.670 335.622,348.059 336.571,348.134 336.865 C 348.208 337.159,348.192 337.262,348.099 337.093 C 347.881 336.699,346.016 338.450,346.007 339.057 C 346.003 339.309,345.733 339.617,345.407 339.742 C 345.080 339.867,344.908 340.217,345.024 340.518 C 345.167 340.890,344.938 341.056,344.317 341.034 C 343.132 340.990,343.085 342.155,344.266 342.323 C 344.885 342.412,345.205 342.184,345.391 341.523 C 346.046 339.191,347.006 337.958,348.331 337.746 C 349.780 337.515,350.082 337.182,349.830 336.096 C 349.658 335.356,349.696 335.181,349.947 335.558 C 350.379 336.207,351.613 335.868,351.572 335.113 C 351.470 333.247,350.997 333.166,349.491 334.756 M48.626 335.438 C 48.439 336.183,48.576 336.663,49.111 337.138 C 49.520 337.502,49.972 338.115,50.115 338.500 C 50.258 338.885,50.631 339.200,50.945 339.200 C 51.258 339.200,51.618 339.470,51.745 339.800 C 51.871 340.130,52.251 340.400,52.587 340.400 C 52.926 340.400,53.200 340.746,53.200 341.173 C 53.200 342.132,54.753 342.717,55.244 341.943 C 55.529 341.492,55.589 341.496,55.594 341.967 C 55.597 342.278,55.715 342.419,55.855 342.279 C 56.349 341.785,52.247 338.255,51.300 338.359 C 50.694 338.425,50.400 338.244,50.400 337.805 C 50.400 337.446,50.563 337.254,50.763 337.377 C 50.962 337.500,51.031 337.241,50.916 336.801 C 50.801 336.360,50.560 336.000,50.380 336.000 C 50.201 336.000,49.940 335.640,49.800 335.200 C 49.449 334.095,48.937 334.199,48.626 335.438 M341.587 343.413 C 340.765 344.289,340.709 344.504,341.210 344.856 C 341.670 345.178,341.596 345.224,340.876 345.066 C 340.295 344.938,339.870 345.074,339.733 345.431 C 339.613 345.744,339.361 346.000,339.173 346.000 C 338.167 346.000,335.195 349.545,335.990 349.797 C 337.043 350.131,337.716 349.686,337.486 348.806 C 337.351 348.293,337.490 348.151,337.996 348.283 C 338.389 348.386,338.795 348.191,338.932 347.832 C 339.066 347.485,339.001 347.200,338.787 347.200 C 337.954 347.200,338.465 346.569,339.700 346.072 C 341.906 345.183,342.200 344.939,342.209 343.985 C 342.213 343.477,342.464 342.979,342.764 342.879 C 343.094 342.769,343.201 342.875,343.032 343.148 C 342.878 343.397,342.958 343.600,343.210 343.600 C 343.746 343.600,343.534 342.711,342.952 342.517 C 342.733 342.444,342.119 342.848,341.587 343.413 M58.800 345.405 C 58.800 345.518,58.967 345.923,59.171 346.305 C 59.375 346.687,59.670 347.360,59.826 347.800 C 60.092 348.548,60.127 348.536,60.370 347.615 C 60.548 346.937,60.406 346.406,59.915 345.915 C 59.201 345.201,58.800 345.018,58.800 345.405 M61.467 348.267 C 60.700 349.033,61.226 350.060,62.300 349.894 C 62.905 349.800,63.175 349.799,62.900 349.891 C 61.653 350.309,63.199 351.612,64.871 351.554 C 65.602 351.528,65.885 351.425,65.500 351.324 C 65.115 351.224,64.800 350.891,64.800 350.585 C 64.800 349.907,63.566 349.200,62.384 349.200 C 61.775 349.200,61.584 349.020,61.745 348.600 C 61.992 347.956,61.894 347.839,61.467 348.267 M333.843 350.352 C 333.196 351.068,333.213 351.116,334.200 351.364 C 335.841 351.776,336.879 350.423,335.367 349.843 C 334.533 349.523,334.620 349.494,333.843 350.352 M328.758 354.929 C 328.405 355.190,327.987 355.810,327.829 356.307 C 327.672 356.805,327.386 357.115,327.195 356.997 C 327.004 356.879,326.450 357.191,325.965 357.691 C 325.480 358.191,325.219 358.360,325.385 358.067 C 325.608 357.675,325.358 357.705,324.444 358.177 C 322.879 358.987,322.868 359.377,324.407 359.484 C 325.234 359.542,325.766 359.323,326.103 358.784 C 326.372 358.353,326.909 358.000,327.296 358.000 C 327.683 358.000,328.000 357.714,328.000 357.364 C 328.000 357.014,328.386 356.416,328.857 356.034 C 329.868 355.216,329.776 354.179,328.758 354.929 M69.200 355.553 C 69.200 356.365,70.642 356.979,71.040 356.336 C 71.269 355.965,70.131 354.839,69.500 354.813 C 69.335 354.806,69.200 355.139,69.200 355.553 M72.000 358.569 C 72.000 359.401,72.603 359.665,73.811 359.362 C 74.998 359.063,74.720 358.626,73.100 358.244 C 72.284 358.052,72.000 358.135,72.000 358.569 M77.026 361.300 C 77.180 361.795,77.462 362.260,77.653 362.333 C 77.844 362.407,78.000 362.791,78.000 363.187 C 78.000 363.952,79.704 364.660,79.933 363.990 C 80.007 363.775,80.367 363.599,80.733 363.598 C 81.140 363.596,80.947 363.359,80.238 362.989 C 79.599 362.656,78.663 361.937,78.157 361.392 C 77.016 360.161,76.663 360.132,77.026 361.300 M320.629 361.429 C 320.117 361.941,320.041 362.214,320.381 362.327 C 320.650 362.417,321.055 362.305,321.280 362.080 C 321.505 361.855,321.617 361.450,321.527 361.181 C 321.414 360.841,321.141 360.917,320.629 361.429 M81.847 364.579 C 81.978 364.921,82.251 365.200,82.453 365.200 C 82.655 365.200,82.991 365.650,83.200 366.200 C 83.409 366.750,83.765 367.200,83.990 367.200 C 84.216 367.200,84.400 367.470,84.400 367.800 C 84.400 368.533,85.741 368.594,86.328 367.887 C 86.960 367.125,86.335 366.438,84.912 366.330 C 84.221 366.277,83.724 366.123,83.807 365.988 C 83.954 365.751,83.073 364.863,82.087 364.254 C 81.768 364.057,81.688 364.165,81.847 364.579 M314.662 365.931 C 313.948 366.721,313.784 367.600,314.351 367.600 C 314.907 367.600,315.693 366.474,315.432 366.052 C 315.302 365.841,315.421 365.577,315.698 365.466 C 315.985 365.350,316.013 365.250,315.762 365.232 C 315.521 365.214,315.026 365.529,314.662 365.931 M87.884 369.200 C 87.999 369.640,88.359 370.000,88.684 370.000 C 89.009 370.000,89.362 370.333,89.469 370.741 C 89.603 371.254,90.007 371.469,90.779 371.441 C 92.180 371.390,91.946 370.400,90.534 370.400 C 89.862 370.400,89.644 370.242,89.841 369.900 C 89.999 369.625,89.981 369.534,89.800 369.697 C 89.619 369.861,89.220 369.636,88.913 369.197 C 88.193 368.170,87.615 368.171,87.884 369.200 M308.534 369.478 C 308.057 369.571,307.572 369.897,307.454 370.203 C 307.318 370.557,307.441 370.683,307.791 370.548 C 308.185 370.397,308.280 370.573,308.124 371.168 C 307.992 371.672,308.097 372.000,308.391 372.000 C 308.657 372.000,308.966 371.652,309.077 371.228 C 309.188 370.803,309.531 370.359,309.839 370.240 C 310.148 370.122,310.400 369.839,310.400 369.613 C 310.400 369.195,310.097 369.173,308.534 369.478 M92.953 372.221 C 93.089 372.577,93.022 372.737,92.795 372.597 C 92.578 372.463,92.400 372.633,92.400 372.976 C 92.400 373.333,92.742 373.600,93.200 373.600 C 93.644 373.600,94.000 373.867,94.000 374.200 C 94.000 374.530,94.225 374.798,94.500 374.795 C 95.449 374.784,96.800 374.306,96.800 373.980 C 96.800 373.675,95.155 372.982,94.870 373.168 C 94.798 373.214,94.417 372.881,94.023 372.426 C 93.177 371.451,92.616 371.343,92.953 372.221 M304.011 372.636 L 302.623 373.600 304.124 373.600 C 305.118 373.600,305.706 373.388,305.866 372.973 C 306.307 371.823,305.417 371.661,304.011 372.636 M97.253 375.048 C 96.460 375.945,97.249 376.616,98.383 376.009 C 99.079 375.636,99.157 375.431,98.777 374.972 C 98.185 374.259,97.941 374.271,97.253 375.048 M300.023 375.643 C 300.363 376.278,300.588 376.372,300.934 376.026 C 301.280 375.680,301.246 375.474,300.797 375.189 C 299.827 374.576,299.541 374.743,300.023 375.643 M298.075 376.325 C 297.676 376.724,297.091 376.972,296.775 376.877 C 296.336 376.745,296.356 376.868,296.862 377.399 C 297.603 378.178,298.487 377.893,298.140 376.987 C 297.999 376.621,298.156 376.400,298.557 376.400 C 298.911 376.400,299.200 376.220,299.200 376.000 C 299.200 375.418,298.894 375.506,298.075 376.325 M100.088 377.045 C 100.006 378.041,100.863 378.328,101.919 377.659 C 102.344 377.389,102.344 377.257,101.919 376.927 C 100.768 376.034,100.168 376.072,100.088 377.045 M103.600 377.924 C 103.600 378.186,103.330 378.400,103.000 378.400 C 102.670 378.400,102.400 378.670,102.400 379.000 C 102.400 379.438,102.853 379.600,104.080 379.600 C 105.467 379.600,105.659 379.513,105.180 379.100 C 104.861 378.825,104.375 378.341,104.100 378.024 C 103.769 377.642,103.600 377.608,103.600 377.924 M293.675 378.343 C 292.604 379.151,292.887 379.600,294.467 379.600 C 295.669 379.600,295.990 378.821,295.093 378.077 C 294.728 377.774,294.330 377.849,293.675 378.343 M290.987 380.021 C 290.889 380.180,291.041 380.502,291.325 380.738 C 291.867 381.188,293.600 380.929,293.600 380.399 C 293.600 379.993,291.217 379.649,290.987 380.021 M287.500 381.683 C 286.830 382.369,286.860 382.400,288.200 382.400 C 288.970 382.400,289.600 382.220,289.600 382.000 C 289.600 381.780,289.345 381.600,289.033 381.600 C 288.722 381.600,288.407 381.457,288.333 381.283 C 288.260 381.109,287.885 381.289,287.500 381.683 M108.210 381.984 C 107.871 382.533,108.171 382.945,108.762 382.742 C 109.004 382.658,109.035 382.376,108.837 382.057 C 108.587 381.655,108.425 381.636,108.210 381.984 M284.174 382.842 C 284.024 383.085,283.192 383.601,282.326 383.989 C 280.869 384.641,280.800 384.743,281.404 385.347 C 282.349 386.292,283.163 386.150,283.615 384.961 C 283.832 384.390,284.367 383.829,284.805 383.715 C 285.242 383.600,285.600 383.258,285.600 382.953 C 285.600 382.294,284.563 382.213,284.174 382.842 M111.200 383.833 C 111.200 384.182,111.414 384.395,111.675 384.308 C 112.417 384.061,112.540 383.200,111.833 383.200 C 111.485 383.200,111.200 383.485,111.200 383.833 M115.000 384.000 C 114.864 384.220,114.943 384.400,115.176 384.400 C 115.409 384.400,115.600 384.644,115.600 384.943 C 115.600 385.283,116.027 385.469,116.748 385.443 C 117.490 385.415,117.829 385.223,117.705 384.900 C 117.528 384.436,117.022 384.239,116.300 384.353 C 116.135 384.379,116.000 384.220,116.000 384.000 C 116.000 383.780,115.831 383.600,115.624 383.600 C 115.417 383.600,115.136 383.780,115.000 384.000 M276.881 386.418 C 276.613 386.848,276.125 387.200,275.797 387.200 C 275.467 387.200,275.200 387.558,275.200 388.000 C 275.200 389.271,276.135 388.912,276.917 387.341 C 277.695 385.778,277.671 385.153,276.881 386.418 M118.900 386.265 C 118.239 386.532,118.255 387.600,118.920 387.600 C 119.206 387.600,119.627 387.413,119.855 387.185 C 120.488 386.552,122.449 387.408,122.150 388.187 C 121.982 388.625,122.170 388.800,122.806 388.800 C 124.066 388.800,122.490 386.840,121.000 386.554 C 120.780 386.512,120.330 386.384,120.000 386.270 C 119.670 386.157,119.175 386.154,118.900 386.265 M278.900 386.267 C 277.977 386.636,278.360 387.600,279.429 387.600 C 280.175 387.600,280.423 387.416,280.329 386.933 C 280.187 386.200,279.670 385.959,278.900 386.267 M273.600 387.800 C 272.912 388.193,272.803 388.376,273.251 388.386 C 273.609 388.394,274.126 388.130,274.400 387.800 C 275.009 387.066,274.884 387.066,273.600 387.800 M126.700 388.865 C 125.004 389.484,125.269 390.489,127.100 390.378 C 129.414 390.239,130.468 390.366,130.228 390.755 C 130.108 390.950,130.390 391.209,130.856 391.331 C 131.613 391.528,131.582 391.425,130.575 390.374 C 129.808 389.574,129.181 389.259,128.623 389.394 C 128.170 389.503,128.025 389.489,128.300 389.363 C 129.881 388.637,128.501 388.207,126.700 388.865 M132.000 390.753 C 132.000 390.948,132.405 391.215,132.900 391.348 C 134.433 391.759,134.650 391.621,133.454 390.998 C 132.119 390.301,132.000 390.281,132.000 390.753 M265.867 390.667 C 265.259 391.275,266.225 392.000,267.643 392.000 C 269.433 392.000,269.731 391.332,268.100 390.974 C 267.495 390.842,266.793 390.671,266.539 390.594 C 266.286 390.518,265.983 390.550,265.867 390.667 M136.800 391.951 C 136.800 392.375,137.554 392.988,138.480 393.318 C 138.962 393.489,139.095 393.391,138.937 392.980 C 138.814 392.661,138.464 392.400,138.157 392.400 C 137.851 392.400,137.600 392.220,137.600 392.000 C 137.600 391.780,137.420 391.600,137.200 391.600 C 136.980 391.600,136.800 391.758,136.800 391.951 M259.800 392.542 L 259.000 393.400 261.300 393.470 C 263.056 393.523,263.600 393.404,263.600 392.970 C 263.600 392.629,263.198 392.400,262.600 392.400 C 262.050 392.400,261.600 392.220,261.600 392.000 C 261.600 391.341,260.654 391.626,259.800 392.542 M133.600 393.000 C 133.600 393.373,133.978 393.600,134.600 393.600 C 135.222 393.600,135.600 393.373,135.600 393.000 C 135.600 392.627,135.222 392.400,134.600 392.400 C 133.978 392.400,133.600 392.627,133.600 393.000 M142.000 394.024 C 142.000 394.257,142.151 394.354,142.335 394.240 C 142.974 393.845,144.444 395.232,144.200 396.000 C 144.072 396.403,144.156 396.849,144.387 396.992 C 145.022 397.384,146.400 396.824,146.400 396.173 C 146.400 395.858,146.715 395.593,147.100 395.584 C 147.493 395.576,147.209 395.312,146.454 394.984 C 144.918 394.317,144.316 394.229,145.200 394.800 C 145.655 395.094,145.670 395.189,145.263 395.194 C 144.968 395.197,144.269 394.840,143.709 394.400 C 142.580 393.512,142.000 393.384,142.000 394.024 M138.904 394.264 C 138.270 394.520,139.256 395.600,140.122 395.600 C 140.823 395.600,141.698 394.631,141.330 394.263 C 141.030 393.964,139.645 393.964,138.904 394.264 M256.900 394.265 C 255.917 394.662,256.374 395.600,257.551 395.600 C 258.704 395.600,259.824 394.758,259.330 394.263 C 259.030 393.963,257.645 393.964,256.900 394.265 M251.026 394.758 C 250.904 394.955,251.115 395.235,251.495 395.381 C 251.874 395.527,252.248 395.455,252.326 395.223 C 252.403 394.990,252.660 394.800,252.895 394.800 C 253.131 394.800,253.026 395.129,252.662 395.531 C 251.793 396.492,251.827 396.800,252.800 396.800 C 253.304 396.800,253.600 396.533,253.600 396.080 C 253.600 395.684,253.816 395.144,254.080 394.880 C 254.453 394.507,254.192 394.400,252.904 394.400 C 251.993 394.400,251.148 394.561,251.026 394.758 M242.575 397.100 C 242.149 397.485,241.178 397.851,240.417 397.913 C 239.121 398.018,237.600 398.945,237.600 399.629 C 237.600 399.797,238.605 399.925,239.833 399.914 C 241.814 399.896,242.044 399.810,241.869 399.144 C 241.756 398.711,241.964 398.184,242.361 397.897 C 243.028 397.415,243.799 396.400,243.499 396.400 C 243.418 396.400,243.002 396.715,242.575 397.100 M150.100 397.056 C 148.913 397.556,149.623 398.400,151.229 398.400 C 152.565 398.400,152.835 398.274,152.726 397.700 C 152.593 397.002,151.100 396.635,150.100 397.056 M245.249 397.161 C 244.946 397.353,244.821 397.711,244.972 397.955 C 245.314 398.509,246.400 398.543,246.400 398.000 C 246.400 397.780,246.670 397.600,247.000 397.600 C 247.330 397.600,247.600 397.816,247.600 398.080 C 247.600 398.444,247.720 398.440,248.097 398.063 C 249.037 397.123,246.552 396.336,245.249 397.161 M155.280 398.601 L 155.280 400.000 157.840 400.000 C 159.248 400.000,160.400 399.848,160.400 399.662 C 160.400 398.945,158.843 397.966,157.512 397.846 C 156.747 397.777,155.931 397.604,155.700 397.462 C 155.437 397.299,155.280 397.726,155.280 398.601 " stroke="none" fill="#ff0000" fill-rule="evenodd"></path><path id="path3" d="M173.104 0.229 C 172.967 0.367,171.273 0.559,169.341 0.656 C 167.408 0.753,165.713 1.017,165.574 1.241 C 165.435 1.466,164.709 1.662,163.961 1.678 C 163.212 1.693,162.420 1.846,162.200 2.018 C 161.980 2.190,160.990 2.402,160.000 2.489 C 159.010 2.576,157.832 2.848,157.382 3.094 C 156.931 3.340,155.367 3.595,153.905 3.660 C 151.588 3.764,151.193 3.896,150.832 4.690 C 150.468 5.488,150.125 5.600,148.037 5.600 C 146.496 5.600,145.454 5.804,145.080 6.177 C 144.743 6.514,143.573 6.792,142.269 6.845 C 141.041 6.895,140.116 7.065,140.214 7.222 C 140.539 7.748,139.372 8.369,137.651 8.585 C 136.715 8.703,135.646 8.956,135.275 9.147 C 134.904 9.338,133.930 9.616,133.111 9.763 C 132.293 9.911,131.383 10.375,131.090 10.793 C 130.716 11.327,129.994 11.584,128.678 11.652 C 127.645 11.706,126.800 11.896,126.800 12.075 C 126.800 12.254,126.543 12.400,126.229 12.400 C 125.914 12.400,125.419 12.625,125.129 12.900 C 124.838 13.175,124.240 13.461,123.800 13.536 C 123.360 13.611,122.716 13.926,122.369 14.236 C 122.021 14.546,121.256 14.800,120.669 14.800 C 120.008 14.800,119.600 15.019,119.600 15.373 C 119.600 15.954,118.890 16.292,116.916 16.650 C 116.316 16.758,115.621 17.017,115.372 17.223 C 115.123 17.430,114.452 17.638,113.881 17.685 C 113.269 17.736,112.643 18.146,112.354 18.685 C 112.017 19.316,111.504 19.600,110.704 19.600 C 110.065 19.600,109.273 19.870,108.943 20.200 C 108.613 20.530,107.996 20.823,107.571 20.850 C 107.147 20.878,106.575 20.922,106.301 20.950 C 106.026 20.978,105.801 21.342,105.801 21.759 C 105.800 22.257,105.462 22.570,104.817 22.669 C 104.277 22.752,103.737 22.978,103.617 23.170 C 103.498 23.363,103.055 23.583,102.634 23.660 C 102.212 23.737,101.455 24.205,100.952 24.700 C 100.134 25.504,99.256 25.810,98.266 25.636 C 98.082 25.604,97.836 25.940,97.720 26.384 C 97.604 26.828,97.350 27.092,97.155 26.972 C 96.960 26.851,96.800 26.954,96.800 27.200 C 96.800 27.446,96.636 27.546,96.436 27.422 C 95.878 27.077,94.800 27.618,94.800 28.243 C 94.800 28.570,94.388 28.800,93.800 28.800 C 93.111 28.800,92.800 29.020,92.800 29.506 C 92.800 29.989,92.189 30.429,90.873 30.897 C 89.660 31.327,88.745 31.956,88.405 32.591 C 87.928 33.482,86.875 33.865,85.500 33.647 C 85.335 33.621,85.200 33.858,85.200 34.173 C 85.200 34.488,84.859 34.854,84.443 34.986 C 84.027 35.118,83.594 35.581,83.481 36.013 C 83.362 36.466,82.934 36.800,82.471 36.800 C 82.029 36.800,81.607 36.966,81.533 37.170 C 81.460 37.373,81.140 37.598,80.821 37.670 C 80.503 37.741,79.853 38.205,79.376 38.700 C 78.899 39.195,78.304 39.600,78.054 39.600 C 77.804 39.600,77.600 40.050,77.600 40.600 C 77.600 41.500,77.440 41.600,76.000 41.600 C 75.120 41.600,74.400 41.791,74.400 42.024 C 74.400 42.257,74.625 42.318,74.900 42.159 C 75.190 41.992,75.260 42.024,75.067 42.236 C 74.736 42.597,74.553 42.654,73.400 42.750 C 73.040 42.780,72.800 43.200,72.800 43.800 C 72.800 44.606,72.602 44.800,71.776 44.800 C 71.213 44.800,70.851 44.960,70.972 45.155 C 71.092 45.350,70.833 45.603,70.396 45.717 C 69.921 45.841,69.600 46.263,69.600 46.763 C 69.600 47.223,69.360 47.600,69.066 47.600 C 68.772 47.600,67.884 48.275,67.093 49.100 C 64.237 52.079,63.389 52.659,63.876 51.300 C 64.147 50.546,64.084 50.589,63.187 51.777 C 62.669 52.463,62.670 52.517,63.200 52.242 C 63.530 52.071,63.350 52.314,62.800 52.783 C 62.250 53.252,61.398 53.802,60.908 54.005 C 60.417 54.208,60.099 54.605,60.201 54.887 C 60.304 55.169,59.638 55.930,58.722 56.577 C 57.807 57.225,57.207 57.512,57.390 57.215 C 57.617 56.850,57.572 56.770,57.251 56.968 C 56.991 57.129,56.828 57.476,56.889 57.740 C 57.092 58.622,54.232 61.600,53.182 61.600 C 52.752 61.600,52.377 61.870,52.350 62.200 C 52.323 62.530,52.276 62.935,52.248 63.100 C 52.139 63.723,50.545 65.758,49.100 67.119 C 48.275 67.896,47.600 68.772,47.600 69.066 C 47.600 69.360,47.280 69.600,46.889 69.600 C 45.842 69.600,44.800 70.897,44.800 72.200 C 44.800 72.530,44.612 72.800,44.383 72.800 C 44.153 72.800,43.478 73.273,42.883 73.851 C 42.287 74.428,42.070 74.758,42.400 74.582 C 42.882 74.325,42.872 74.413,42.347 75.031 C 41.988 75.454,41.571 76.205,41.420 76.700 C 41.259 77.228,40.827 77.600,40.373 77.600 C 39.948 77.600,39.600 77.858,39.600 78.173 C 39.600 78.488,39.231 78.863,38.779 79.007 C 38.082 79.228,38.036 79.364,38.479 79.909 C 38.925 80.458,38.900 80.512,38.305 80.289 C 37.867 80.125,37.645 80.209,37.705 80.514 C 37.757 80.781,37.575 80.955,37.300 80.900 C 36.875 80.815,36.571 82.147,36.753 83.300 C 36.779 83.465,36.545 83.600,36.233 83.600 C 35.922 83.600,35.278 84.095,34.804 84.700 C 34.329 85.305,34.073 85.530,34.234 85.200 C 34.396 84.870,34.380 84.734,34.199 84.898 C 34.018 85.063,33.808 85.766,33.731 86.462 C 33.586 87.791,32.906 88.913,32.426 88.616 C 31.924 88.306,30.920 89.836,30.638 91.339 C 30.430 92.446,30.169 92.800,29.558 92.800 C 29.115 92.800,28.860 92.973,28.991 93.185 C 29.122 93.397,28.908 93.900,28.515 94.303 C 28.122 94.705,27.737 95.387,27.660 95.817 C 27.583 96.248,27.313 96.732,27.060 96.894 C 26.807 97.056,26.769 97.191,26.975 97.194 C 27.182 97.197,26.957 97.567,26.475 98.016 C 25.994 98.464,25.600 99.255,25.600 99.773 C 25.600 100.291,25.328 100.819,24.997 100.946 C 24.665 101.073,24.173 101.678,23.905 102.289 C 23.636 102.900,23.282 103.498,23.118 103.617 C 22.954 103.737,22.763 104.207,22.694 104.662 C 22.624 105.117,22.265 105.792,21.895 106.162 C 21.054 107.003,19.600 110.242,19.600 111.274 C 19.600 111.699,19.440 111.948,19.244 111.827 C 18.814 111.561,17.600 113.998,17.600 115.127 C 17.600 115.571,17.416 115.995,17.191 116.070 C 16.966 116.145,16.685 116.745,16.566 117.403 C 16.447 118.061,16.001 118.972,15.575 119.426 C 15.149 119.880,14.800 120.602,14.800 121.030 C 14.800 121.458,14.361 122.282,13.824 122.861 C 13.287 123.440,12.928 123.994,13.025 124.092 C 13.278 124.345,12.381 126.800,12.036 126.800 C 11.878 126.800,11.706 127.645,11.652 128.678 C 11.584 129.994,11.327 130.716,10.793 131.090 C 10.375 131.383,9.911 132.293,9.763 133.111 C 9.616 133.930,9.338 134.904,9.147 135.275 C 8.956 135.646,8.706 136.726,8.593 137.675 C 8.469 138.710,8.069 139.666,7.593 140.064 C 7.011 140.552,6.800 141.223,6.800 142.593 C 6.800 143.717,6.562 144.695,6.200 145.057 C 5.805 145.452,5.600 146.447,5.600 147.964 C 5.600 149.995,5.488 150.323,4.664 150.698 C 3.830 151.078,3.719 151.422,3.642 153.862 C 3.594 155.368,3.329 156.960,3.052 157.400 C 2.775 157.840,2.499 159.100,2.439 160.200 C 2.378 161.300,2.169 162.394,1.972 162.631 C 1.776 162.869,1.562 163.409,1.496 163.831 C 1.431 164.254,1.253 164.798,1.102 165.040 C -0.254 167.210,-0.171 234.548,1.190 236.188 C 1.415 236.460,1.659 237.204,1.732 237.841 C 1.804 238.478,1.973 239.270,2.107 239.600 C 2.241 239.930,2.440 241.100,2.548 242.200 C 2.776 244.524,2.922 245.240,3.288 245.824 C 3.433 246.056,3.594 247.280,3.646 248.543 C 3.697 249.805,3.890 250.932,4.076 251.047 C 4.261 251.161,4.292 251.451,4.145 251.689 C 3.985 251.949,4.063 252.009,4.338 251.838 C 4.592 251.681,4.800 251.754,4.800 252.000 C 4.800 252.246,4.980 252.336,5.200 252.200 C 5.448 252.047,5.600 252.796,5.600 254.176 C 5.600 256.843,5.604 256.861,6.271 257.529 C 6.562 257.819,6.800 258.579,6.800 259.216 C 6.800 259.854,7.155 261.009,7.590 261.782 C 8.024 262.556,8.448 263.776,8.532 264.494 C 8.615 265.212,8.982 266.668,9.347 267.730 C 9.712 268.791,9.908 269.826,9.782 270.030 C 9.656 270.233,9.754 270.400,10.000 270.400 C 10.246 270.400,10.319 270.608,10.162 270.862 C 9.996 271.130,10.051 271.216,10.293 271.066 C 10.942 270.665,11.513 271.646,11.651 273.400 C 11.721 274.280,12.004 275.180,12.280 275.400 C 12.557 275.620,12.825 276.385,12.877 277.100 C 12.928 277.815,13.079 278.400,13.211 278.400 C 13.502 278.400,14.800 281.054,14.800 281.649 C 14.800 281.882,15.155 282.371,15.589 282.736 C 16.023 283.101,16.480 284.030,16.603 284.800 C 16.906 286.688,18.282 289.580,19.010 289.859 C 19.334 289.984,19.606 290.471,19.613 290.943 C 19.620 291.414,19.890 292.149,20.213 292.576 C 20.536 293.004,20.800 293.679,20.800 294.076 C 20.800 294.474,21.200 295.200,21.690 295.690 C 22.538 296.538,22.714 296.947,22.889 298.472 C 22.931 298.842,23.074 299.078,23.205 298.997 C 23.337 298.915,23.778 299.468,24.185 300.224 C 24.593 300.981,25.058 301.600,25.218 301.600 C 25.379 301.600,25.629 302.227,25.773 302.994 C 25.916 303.761,26.161 304.370,26.317 304.347 C 27.224 304.213,27.600 304.508,27.600 305.351 C 27.600 305.874,27.870 306.526,28.200 306.800 C 28.530 307.074,28.800 307.636,28.800 308.049 C 28.800 308.462,28.991 308.800,29.224 308.800 C 29.457 308.800,29.544 308.967,29.418 309.171 C 29.292 309.375,29.506 309.643,29.894 309.767 C 30.457 309.945,31.582 311.713,31.824 312.800 C 31.991 313.547,32.547 314.400,32.866 314.400 C 33.076 314.400,33.119 314.192,32.962 313.938 C 32.785 313.652,32.852 313.585,33.138 313.762 C 33.392 313.919,33.600 314.396,33.600 314.823 C 33.600 315.250,34.309 316.330,35.176 317.223 C 36.043 318.116,36.763 318.926,36.776 319.023 C 36.789 319.121,36.800 319.383,36.800 319.607 C 36.800 319.831,37.410 320.607,38.156 321.331 C 38.902 322.055,39.579 322.997,39.660 323.424 C 39.742 323.851,40.191 324.255,40.658 324.322 C 41.213 324.401,41.587 324.819,41.732 325.522 C 41.855 326.115,42.782 327.493,43.791 328.584 C 44.801 329.675,45.730 330.979,45.856 331.481 C 45.982 331.983,46.226 332.307,46.399 332.201 C 46.904 331.888,50.182 335.390,51.160 337.286 C 51.468 337.884,51.864 338.284,52.040 338.175 C 52.464 337.913,53.254 339.413,52.886 339.781 C 52.729 339.938,52.797 340.007,53.037 339.933 C 53.595 339.763,56.000 341.574,56.000 342.164 C 56.000 342.408,56.635 343.146,57.412 343.804 C 60.294 346.246,60.653 346.642,60.474 347.178 C 60.350 347.550,60.501 347.647,60.941 347.478 C 61.401 347.302,61.661 347.505,61.828 348.171 C 61.990 348.815,62.445 349.189,63.269 349.354 C 64.013 349.503,64.554 349.901,64.683 350.397 C 64.799 350.839,65.099 351.200,65.351 351.200 C 65.854 351.200,67.994 353.063,68.011 353.516 C 68.017 353.672,68.741 354.244,69.620 354.786 C 70.525 355.345,71.134 355.994,71.024 356.282 C 70.910 356.580,71.238 356.895,71.814 357.039 C 72.356 357.175,72.800 357.452,72.800 357.653 C 72.800 358.033,74.332 358.744,74.954 358.652 C 75.149 358.623,75.458 359.005,75.641 359.500 C 75.824 359.995,76.237 360.400,76.559 360.400 C 76.880 360.400,77.811 361.030,78.627 361.800 C 79.444 362.570,80.312 363.203,80.556 363.206 C 81.168 363.215,83.823 365.616,83.700 366.049 C 83.645 366.242,83.735 366.379,83.900 366.353 C 85.051 366.171,86.352 366.498,86.553 367.021 C 86.714 367.442,86.632 367.546,86.295 367.344 C 85.967 367.147,85.985 367.275,86.349 367.723 C 86.651 368.095,87.193 368.400,87.553 368.400 C 87.913 368.400,88.693 368.850,89.287 369.400 C 89.880 369.950,90.624 370.400,90.940 370.400 C 91.256 370.400,91.618 370.670,91.745 371.000 C 91.871 371.330,92.274 371.600,92.641 371.600 C 93.007 371.600,93.629 371.972,94.023 372.426 C 94.417 372.881,94.798 373.214,94.870 373.168 C 95.179 372.966,96.800 373.688,96.800 374.027 C 96.800 374.232,97.138 374.400,97.551 374.400 C 97.964 374.400,98.549 374.715,98.851 375.100 C 99.349 375.734,99.334 375.749,98.700 375.251 C 98.315 374.949,98.000 374.885,98.000 375.108 C 98.000 375.555,98.861 375.969,100.396 376.261 C 100.945 376.365,101.679 376.709,102.028 377.025 C 102.377 377.341,102.865 377.600,103.111 377.600 C 103.357 377.600,104.037 378.044,104.622 378.586 C 105.207 379.128,105.802 379.549,105.943 379.521 C 106.084 379.493,106.707 379.680,107.326 379.935 C 107.945 380.191,108.758 380.400,109.131 380.400 C 109.505 380.400,109.988 380.796,110.205 381.280 C 110.474 381.878,111.034 382.207,111.957 382.308 C 112.704 382.390,113.572 382.715,113.886 383.029 C 114.200 383.343,114.804 383.600,115.229 383.600 C 115.653 383.600,116.000 383.791,116.000 384.024 C 116.000 384.257,116.165 384.345,116.368 384.220 C 116.570 384.095,117.019 384.276,117.365 384.622 C 117.712 384.969,118.491 385.338,119.097 385.443 C 119.704 385.548,120.425 385.931,120.700 386.294 C 120.975 386.656,121.200 386.824,121.200 386.667 C 121.200 386.510,121.642 386.671,122.182 387.025 C 122.723 387.379,123.332 387.565,123.537 387.439 C 123.742 387.312,124.132 387.477,124.404 387.804 C 124.705 388.168,125.588 388.400,126.666 388.400 C 127.999 388.400,128.701 388.647,129.513 389.400 C 130.107 389.950,130.978 390.400,131.450 390.400 C 131.922 390.400,132.824 390.669,133.454 390.998 C 134.084 391.326,135.275 391.596,136.100 391.598 C 136.925 391.599,137.600 391.780,137.600 392.000 C 137.600 392.220,137.855 392.400,138.167 392.400 C 138.478 392.400,138.797 392.591,138.875 392.824 C 138.952 393.057,139.822 393.338,140.808 393.449 C 141.794 393.560,143.208 394.007,143.950 394.442 C 144.693 394.877,145.398 395.135,145.517 395.016 C 145.636 394.897,145.493 394.800,145.200 394.800 C 144.907 394.800,144.759 394.708,144.872 394.595 C 144.985 394.482,145.780 394.695,146.639 395.069 C 147.497 395.443,148.335 395.715,148.500 395.674 C 148.665 395.633,148.800 395.750,148.800 395.934 C 148.800 396.118,149.871 396.307,151.179 396.355 C 152.488 396.402,154.153 396.738,154.879 397.103 C 155.606 397.467,156.470 397.778,156.800 397.794 C 157.857 397.844,161.379 398.452,162.000 398.690 C 163.113 399.118,163.790 399.235,166.800 399.518 C 171.013 399.914,227.995 399.871,231.400 399.469 C 232.940 399.288,234.515 399.114,234.900 399.084 C 235.285 399.053,235.600 398.912,235.600 398.770 C 235.600 398.542,237.878 398.156,240.800 397.891 C 241.350 397.841,242.149 397.485,242.575 397.100 C 243.234 396.505,246.508 396.147,248.655 396.434 C 248.796 396.453,249.021 396.314,249.155 396.125 C 249.783 395.244,251.716 394.400,253.106 394.400 C 253.950 394.400,254.820 394.220,255.040 394.000 C 255.260 393.780,256.235 393.569,257.207 393.531 C 258.430 393.483,259.246 393.191,259.855 392.581 C 260.476 391.960,261.399 391.638,262.982 391.487 C 264.218 391.370,265.459 391.083,265.741 390.849 C 266.023 390.615,266.814 390.381,267.500 390.329 C 268.356 390.264,268.878 389.947,269.165 389.317 C 269.488 388.609,269.910 388.400,271.018 388.400 C 271.807 388.400,272.817 388.205,273.261 387.967 C 273.706 387.729,274.549 387.453,275.135 387.355 C 275.721 387.256,276.484 386.839,276.830 386.429 C 277.345 385.820,279.098 385.300,280.924 385.215 C 281.102 385.207,281.136 385.020,281.000 384.800 C 280.864 384.580,281.008 384.400,281.321 384.400 C 281.633 384.400,282.551 383.950,283.362 383.400 C 284.172 382.850,285.286 382.400,285.837 382.400 C 286.391 382.400,287.252 381.954,287.765 381.400 C 288.275 380.850,289.082 380.400,289.560 380.400 C 290.037 380.400,290.872 380.109,291.414 379.754 C 291.956 379.399,292.400 379.219,292.400 379.354 C 292.400 379.489,292.756 379.244,293.191 378.809 C 294.029 377.971,296.800 376.667,297.101 376.968 C 297.200 377.066,297.898 376.529,298.653 375.773 C 299.409 375.018,300.373 374.400,300.796 374.400 C 301.218 374.400,302.592 373.680,303.849 372.800 C 305.105 371.920,306.361 371.200,306.639 371.200 C 306.918 371.200,307.254 370.859,307.387 370.442 C 307.536 369.972,308.155 369.585,309.014 369.424 C 309.776 369.281,310.400 368.995,310.400 368.789 C 310.400 368.584,310.850 368.302,311.400 368.164 C 312.026 368.007,312.400 367.630,312.400 367.157 C 312.400 366.469,313.519 366.118,314.930 366.363 C 315.111 366.394,315.138 366.223,314.989 365.983 C 314.837 365.736,315.084 365.451,315.560 365.326 C 316.022 365.206,316.400 364.787,316.400 364.397 C 316.400 363.973,316.803 363.586,317.400 363.436 C 317.950 363.298,318.400 363.008,318.400 362.792 C 318.400 362.577,318.766 362.400,319.213 362.400 C 319.659 362.400,320.120 362.153,320.236 361.850 C 320.352 361.548,321.066 360.967,321.823 360.559 C 322.581 360.152,323.200 359.595,323.200 359.323 C 323.200 358.657,324.694 357.893,325.308 358.246 C 325.579 358.401,325.666 358.380,325.501 358.199 C 325.337 358.018,325.742 357.542,326.401 357.141 C 327.061 356.740,327.600 356.244,327.600 356.039 C 327.600 355.833,328.230 355.276,329.000 354.800 C 329.813 354.298,330.400 353.613,330.400 353.167 C 330.400 352.692,330.677 352.400,331.128 352.400 C 331.529 352.400,332.708 351.585,333.748 350.588 C 334.854 349.528,335.838 348.891,336.119 349.052 C 336.384 349.204,336.466 349.181,336.303 349.000 C 335.997 348.662,337.574 347.333,338.086 347.498 C 338.243 347.549,338.269 347.324,338.144 346.999 C 338.017 346.668,338.190 346.302,338.535 346.170 C 339.256 345.893,343.200 342.025,343.200 341.594 C 343.200 341.434,343.829 340.875,344.597 340.352 C 345.366 339.828,345.996 339.215,345.997 338.989 C 346.001 338.465,347.692 336.981,348.130 337.117 C 348.311 337.174,348.336 337.020,348.185 336.776 C 348.030 336.526,348.890 335.369,350.155 334.123 C 351.390 332.908,352.400 331.573,352.400 331.157 C 352.400 330.670,352.682 330.400,353.188 330.400 C 353.688 330.400,354.309 329.817,354.888 328.803 C 355.390 327.925,355.959 327.205,356.154 327.203 C 356.712 327.198,358.436 325.183,358.204 324.807 C 358.090 324.622,358.717 323.719,359.598 322.802 C 360.479 321.885,361.200 321.000,361.200 320.835 C 361.200 320.670,361.653 320.293,362.208 319.996 C 362.882 319.635,363.059 319.360,362.743 319.165 C 362.398 318.951,362.449 318.693,362.935 318.208 C 363.301 317.842,363.600 317.286,363.600 316.971 C 363.600 316.657,363.939 316.400,364.353 316.400 C 364.782 316.400,365.201 316.038,365.326 315.560 C 365.451 315.084,365.736 314.837,365.983 314.989 C 366.223 315.138,366.394 315.111,366.363 314.930 C 366.190 313.934,366.447 311.982,366.729 312.156 C 367.096 312.383,368.400 311.010,368.400 310.395 C 368.400 310.178,368.580 310.000,368.800 310.000 C 369.020 310.000,369.200 309.722,369.200 309.382 C 369.200 309.042,369.605 308.350,370.100 307.843 C 370.595 307.337,371.341 306.271,371.757 305.473 C 372.173 304.676,372.696 304.136,372.919 304.273 C 373.141 304.411,373.208 304.337,373.067 304.109 C 372.926 303.881,373.168 303.239,373.605 302.684 C 374.042 302.128,374.400 301.303,374.400 300.850 C 374.400 300.397,375.033 299.394,375.807 298.620 C 376.580 297.846,377.210 297.120,377.207 297.007 C 377.203 296.893,377.213 296.755,377.230 296.700 C 377.246 296.645,377.341 296.150,377.440 295.600 C 377.539 295.050,377.977 294.328,378.415 293.995 C 378.852 293.662,379.285 292.998,379.377 292.521 C 379.469 292.043,379.737 291.292,379.972 290.852 C 380.207 290.412,380.400 289.746,380.400 289.372 C 380.400 288.998,380.850 288.275,381.400 287.765 C 381.960 287.246,382.400 286.392,382.400 285.824 C 382.400 285.266,382.715 284.441,383.100 283.992 C 383.485 283.542,383.809 283.045,383.819 282.887 C 383.829 282.729,384.234 281.970,384.718 281.200 C 385.201 280.430,385.598 279.395,385.599 278.900 C 385.599 278.405,385.960 277.640,386.400 277.200 C 386.840 276.760,387.206 275.995,387.213 275.500 C 387.220 275.005,387.490 274.251,387.813 273.824 C 388.136 273.396,388.400 272.351,388.400 271.500 C 388.400 270.646,388.567 270.056,388.773 270.183 C 389.434 270.592,390.400 268.670,390.400 266.944 C 390.400 266.022,390.590 265.203,390.822 265.126 C 391.308 264.964,391.526 264.024,391.569 261.900 C 391.594 260.677,391.748 260.400,392.400 260.400 C 392.884 260.400,393.212 260.123,393.231 259.700 C 393.325 257.556,393.700 255.352,394.026 255.020 C 394.232 254.811,394.400 254.215,394.400 253.696 C 394.400 253.169,394.577 252.862,394.800 253.000 C 395.027 253.141,395.200 252.800,395.200 252.211 C 395.200 251.641,395.470 250.528,395.800 249.738 C 396.130 248.949,396.400 247.572,396.400 246.680 C 396.400 244.953,397.156 242.400,397.668 242.400 C 397.837 242.400,397.860 242.100,397.719 241.734 C 397.579 241.368,397.630 241.171,397.832 241.295 C 398.038 241.422,398.245 240.361,398.302 238.883 C 398.358 237.432,398.538 236.144,398.702 236.022 C 400.041 235.023,400.445 164.970,399.117 164.149 C 398.935 164.036,398.891 163.777,399.017 163.572 C 399.144 163.368,399.057 163.200,398.824 163.200 C 398.589 163.200,398.400 162.406,398.400 161.420 C 398.400 160.441,398.206 158.734,397.968 157.626 C 397.731 156.519,397.524 155.476,397.508 155.307 C 397.492 155.138,397.244 154.820,396.956 154.600 C 396.632 154.352,396.402 153.171,396.353 151.500 C 396.310 150.015,396.122 148.800,395.937 148.800 C 395.752 148.800,395.629 148.665,395.664 148.500 C 395.737 148.155,395.311 146.916,394.771 145.905 C 394.290 145.005,394.300 144.691,394.800 145.000 C 395.020 145.136,395.200 145.072,395.200 144.857 C 395.200 144.642,395.036 144.407,394.837 144.333 C 394.637 144.260,394.412 143.840,394.337 143.400 C 394.261 142.960,394.079 142.508,393.931 142.396 C 393.783 142.283,393.558 141.305,393.430 140.221 C 393.301 139.118,392.864 137.887,392.440 137.425 C 392.022 136.971,391.596 135.837,391.493 134.905 C 391.390 133.973,391.110 132.974,390.871 132.686 C 390.632 132.397,390.390 131.476,390.333 130.639 C 390.255 129.472,390.017 129.034,389.315 128.768 C 388.582 128.489,388.400 128.116,388.400 126.890 C 388.400 126.048,388.230 125.189,388.022 124.980 C 387.814 124.771,387.534 123.971,387.399 123.201 C 387.264 122.432,386.820 121.442,386.411 121.001 C 386.003 120.561,385.581 119.626,385.473 118.925 C 385.231 117.343,384.908 116.800,384.212 116.800 C 383.874 116.800,383.711 116.430,383.779 115.815 C 383.838 115.273,383.552 114.470,383.143 114.031 C 382.735 113.593,382.400 112.787,382.400 112.240 C 382.400 111.694,382.217 111.134,381.993 110.996 C 381.770 110.858,381.709 110.532,381.858 110.272 C 382.006 110.013,381.981 109.933,381.801 110.097 C 381.282 110.567,380.400 109.594,380.400 108.551 C 380.400 108.028,380.234 107.600,380.032 107.600 C 379.829 107.600,379.536 107.015,379.381 106.300 C 379.051 104.783,378.244 103.490,377.864 103.869 C 377.637 104.096,377.434 103.139,377.540 102.338 C 377.559 102.194,377.310 101.857,376.987 101.589 C 376.664 101.321,376.400 100.764,376.400 100.351 C 376.400 99.938,376.209 99.600,375.976 99.600 C 375.743 99.600,375.642 99.456,375.750 99.281 C 375.858 99.105,375.782 98.700,375.580 98.381 C 375.328 97.982,375.210 97.957,375.206 98.300 C 375.203 98.575,375.020 98.800,374.800 98.800 C 374.580 98.800,374.400 98.170,374.400 97.400 C 374.400 96.630,374.224 96.000,374.008 96.000 C 373.793 96.000,373.208 95.256,372.708 94.346 C 371.134 91.478,370.935 91.198,370.664 91.469 C 370.519 91.614,370.400 91.433,370.400 91.067 C 370.400 90.700,370.240 90.400,370.043 90.400 C 369.847 90.400,369.574 89.950,369.436 89.400 C 369.298 88.850,369.008 88.400,368.792 88.400 C 368.577 88.400,368.400 88.105,368.400 87.744 C 368.400 87.383,368.085 86.830,367.700 86.514 C 367.315 86.199,367.253 86.072,367.562 86.232 C 367.922 86.419,368.025 86.364,367.849 86.079 C 367.698 85.835,367.310 85.736,366.987 85.860 C 366.562 86.023,366.400 85.794,366.400 85.030 C 366.400 84.450,366.131 83.872,365.802 83.746 C 365.474 83.619,365.295 83.369,365.406 83.190 C 365.517 83.011,365.148 82.503,364.586 82.061 C 364.025 81.619,363.498 80.910,363.417 80.486 C 363.239 79.564,361.495 77.600,360.854 77.600 C 360.604 77.600,360.400 77.261,360.400 76.846 C 360.400 76.431,359.950 75.797,359.400 75.437 C 358.779 75.030,358.400 74.406,358.400 73.791 C 358.400 73.177,358.172 72.800,357.800 72.800 C 357.270 72.800,356.993 72.047,357.163 71.070 C 357.194 70.889,357.023 70.862,356.782 71.011 C 356.302 71.308,353.911 68.867,354.210 68.384 C 354.311 68.220,353.986 67.983,353.486 67.857 C 352.987 67.732,352.064 66.817,351.437 65.824 C 350.809 64.830,350.139 64.114,349.948 64.232 C 349.756 64.351,349.578 64.257,349.550 64.024 C 349.523 63.791,349.478 63.423,349.450 63.208 C 349.423 62.992,348.950 62.507,348.400 62.131 C 347.143 61.270,346.788 60.752,347.091 60.219 C 347.221 59.989,347.181 59.934,347.000 60.097 C 346.819 60.261,346.420 60.036,346.113 59.597 C 345.806 59.159,345.295 58.800,344.977 58.800 C 344.660 58.800,344.400 58.611,344.400 58.380 C 344.400 58.148,343.790 57.383,343.044 56.680 C 342.298 55.976,341.482 54.995,341.230 54.500 C 340.978 54.005,340.542 53.600,340.261 53.600 C 339.557 53.600,337.933 52.031,338.197 51.605 C 338.315 51.414,338.041 51.140,337.588 50.996 C 337.135 50.852,336.007 50.032,335.082 49.172 C 334.157 48.313,333.175 47.608,332.900 47.605 C 332.456 47.601,332.239 47.110,332.339 46.340 C 332.358 46.197,331.929 45.969,331.387 45.832 C 330.844 45.696,330.400 45.408,330.400 45.192 C 330.400 44.977,330.130 44.800,329.800 44.800 C 329.297 44.800,329.036 44.177,329.124 43.185 C 329.135 43.067,328.675 42.931,328.102 42.884 C 327.529 42.836,326.762 42.528,326.399 42.199 C 326.035 41.869,325.436 41.600,325.069 41.600 C 324.685 41.600,324.400 41.285,324.400 40.860 C 324.400 40.453,323.836 39.688,323.147 39.160 C 322.457 38.632,321.530 37.885,321.085 37.500 C 320.641 37.115,319.990 36.800,319.639 36.800 C 319.287 36.800,318.212 36.080,317.249 35.200 C 316.186 34.228,315.107 33.600,314.500 33.600 C 313.613 33.600,313.563 33.525,314.051 32.923 C 314.364 32.538,314.397 32.368,314.128 32.530 C 313.868 32.686,313.545 32.635,313.411 32.417 C 313.276 32.200,312.554 31.731,311.806 31.376 C 311.059 31.021,310.162 30.297,309.814 29.766 C 309.427 29.175,308.797 28.800,308.191 28.800 C 307.646 28.800,307.200 28.623,307.200 28.408 C 307.200 28.192,306.750 27.902,306.200 27.764 C 305.650 27.626,305.200 27.342,305.200 27.133 C 305.200 26.924,305.020 26.864,304.800 27.000 C 304.580 27.136,304.400 26.986,304.400 26.667 C 304.400 26.348,303.950 25.974,303.400 25.836 C 302.850 25.698,302.400 25.340,302.400 25.040 C 302.400 24.726,301.620 24.299,300.563 24.032 C 299.552 23.778,298.292 23.286,297.763 22.939 C 297.233 22.592,296.800 22.443,296.800 22.608 C 296.800 22.773,296.427 22.434,295.971 21.854 C 295.477 21.226,294.745 20.800,294.158 20.800 C 293.617 20.800,293.071 20.530,292.945 20.200 C 292.802 19.827,292.192 19.600,291.334 19.600 C 290.574 19.600,290.025 19.465,290.113 19.300 C 290.370 18.818,289.070 17.812,287.991 17.659 C 287.446 17.581,286.910 17.374,286.800 17.199 C 286.690 17.024,285.880 16.770,285.000 16.636 C 284.120 16.502,283.109 16.043,282.753 15.617 C 282.397 15.191,281.587 14.721,280.953 14.573 C 280.319 14.425,279.591 14.044,279.336 13.725 C 279.081 13.407,278.721 13.136,278.536 13.122 C 278.094 13.090,277.575 12.943,276.600 12.573 C 276.160 12.406,275.680 12.254,275.533 12.235 C 275.387 12.216,275.132 12.065,274.967 11.900 C 274.802 11.735,274.304 11.600,273.862 11.600 C 272.781 11.600,270.400 10.719,270.400 10.320 C 270.400 10.144,270.175 9.999,269.900 9.998 C 269.625 9.996,268.906 9.737,268.302 9.423 C 267.699 9.108,266.191 8.741,264.952 8.607 C 263.471 8.447,262.476 8.105,262.049 7.611 C 261.682 7.185,260.701 6.786,259.792 6.692 C 258.907 6.601,257.794 6.318,257.318 6.063 C 256.842 5.808,255.524 5.600,254.389 5.600 C 252.662 5.600,252.291 5.470,252.116 4.800 C 252.001 4.360,251.703 3.979,251.453 3.954 C 251.204 3.928,250.820 3.866,250.600 3.815 C 250.380 3.764,249.154 3.694,247.876 3.661 C 246.598 3.627,245.640 3.458,245.748 3.285 C 245.855 3.112,245.489 2.932,244.935 2.886 C 244.382 2.841,243.720 2.671,243.464 2.509 C 243.039 2.239,241.486 1.994,240.000 1.962 C 238.757 1.935,237.574 1.565,237.762 1.262 C 237.869 1.089,237.111 0.889,236.078 0.817 C 235.045 0.746,233.390 0.609,232.400 0.513 C 229.439 0.227,173.375 -0.041,173.104 0.229 M232.600 113.909 C 243.777 115.587,247.976 117.007,254.230 121.222 C 274.437 134.843,279.811 174.162,264.684 197.706 C 259.186 206.263,249.337 212.827,236.900 216.223 C 234.640 216.840,233.012 218.800,234.760 218.800 C 236.869 218.800,251.686 234.356,253.238 238.200 C 253.327 238.420,254.174 239.860,255.121 241.400 C 256.067 242.940,256.998 244.470,257.190 244.800 C 257.381 245.130,258.118 246.390,258.827 247.600 C 260.406 250.293,261.816 252.892,264.436 257.935 C 265.540 260.061,267.297 263.420,268.340 265.400 C 271.209 270.849,276.662 281.355,280.796 289.400 C 282.831 293.360,284.654 296.771,284.848 296.980 C 287.036 299.342,285.248 299.600,266.657 299.600 L 249.661 299.600 248.509 298.630 C 247.875 298.097,246.777 296.522,246.068 295.130 C 245.359 293.739,244.367 291.880,243.864 291.000 C 243.014 289.513,242.206 288.048,238.788 281.800 C 238.066 280.480,236.666 277.962,235.676 276.205 C 234.686 274.448,233.486 272.288,233.009 271.405 C 231.477 268.569,225.982 258.620,225.606 258.000 C 225.405 257.670,223.184 253.800,220.670 249.400 C 209.449 229.762,205.644 225.322,198.000 222.945 C 193.996 221.700,189.698 221.584,146.800 221.563 C 109.600 221.544,103.271 221.458,102.500 220.961 L 101.600 220.382 101.606 206.691 C 101.610 198.766,101.772 192.747,101.991 192.400 C 102.319 191.881,105.290 191.785,123.999 191.690 L 145.627 191.580 146.014 190.564 C 146.252 189.937,146.400 175.050,146.400 151.654 C 146.400 121.960,146.508 113.652,146.898 113.262 C 147.878 112.282,225.672 112.869,232.600 113.909 M178.700 144.832 C 177.809 145.351,177.596 190.236,178.480 191.120 C 179.583 192.223,220.301 191.560,225.800 190.349 C 244.774 186.172,246.895 153.028,228.626 146.178 C 224.520 144.639,181.044 143.466,178.700 144.832 M399.200 240.800 C 399.200 241.460,399.380 242.000,399.600 242.000 C 399.820 242.000,400.000 241.460,400.000 240.800 C 400.000 240.140,399.820 239.600,399.600 239.600 C 399.380 239.600,399.200 240.140,399.200 240.800 M177.371 245.829 C 178.356 246.813,178.325 298.032,177.339 298.851 C 176.226 299.775,148.161 299.870,147.148 298.953 C 146.214 298.108,145.955 246.605,146.880 245.680 C 147.695 244.865,176.548 245.006,177.371 245.829 " stroke="none" fill="#f98300" fill-rule="evenodd"></path><path id="path4" d="" stroke="none" fill="#00ff00" fill-rule="evenodd"></path></g></svg>